<?xml version="1.0" encoding="UTF-8"?>
<svg version="1.1" xmlns="http://www.w3.org/2000/svg" width="500" height="500">
<path d="M0 0 C6.4129417 5.2631466 11.27926088 13.89946168 12.46875 22.0078125 C13.73100482 35.29017569 11.50465093 44.91750475 3.3125 55.5 C-2.89492408 62.37936174 -11.44284457 66.34990436 -20.61328125 67.11328125 C-33.19619163 67.15314263 -43.43101456 65.29306272 -52.671875 56.16015625 C-56 52.33655197 -56 52.33655197 -56 49.8125 C-56.70568115 50.03276855 -57.4113623 50.25303711 -58.13842773 50.47998047 C-78.06159858 56.69349242 -98.02008392 62.78415888 -118 68.8125 C-118.11827148 69.6885791 -118.23654297 70.5646582 -118.35839844 71.46728516 C-118.5237207 72.62534668 -118.68904297 73.7834082 -118.859375 74.9765625 C-119.01889648 76.1207666 -119.17841797 77.2649707 -119.34277344 78.44384766 C-121.05908683 87.24091016 -126.06054048 95.32345274 -133.39453125 100.50390625 C-139.71721182 104.43780795 -144.75562145 107.16519068 -152.34375 106.41015625 C-163.17467158 105.08951441 -163.17467158 105.08951441 -173.27490234 108.21435547 C-177.41467553 112.0523025 -180.42079524 116.68039573 -183.42773438 121.42578125 C-185.97518985 125.29285031 -188.9657431 128.76864698 -191.9375 132.3125 C-193.00389359 133.63332856 -194.06780747 134.95616406 -195.12890625 136.28125 C-196.84601392 138.41337712 -198.58802281 140.47796972 -200.40234375 142.53125 C-204.22899698 146.8353475 -204.22899698 146.8353475 -204.9375 152.375 C-204.78796875 153.01695312 -204.6384375 153.65890625 -204.484375 154.3203125 C-202.83838049 162.78921974 -202.74997994 172.48586691 -207.22265625 180.015625 C-208.25471155 182.40128047 -207.79815735 183.35984918 -207 185.8125 C-206.22416695 187.29914161 -205.39294506 188.75753848 -204.5234375 190.19140625 C-204.02038086 191.02559082 -203.51732422 191.85977539 -202.99902344 192.71923828 C-202.4630957 193.59563965 -201.92716797 194.47204102 -201.375 195.375 C-200.83391602 196.26944824 -200.29283203 197.16389648 -199.73535156 198.08544922 C-196.29095204 203.76057611 -192.77587718 209.37939017 -189.109375 214.9140625 C-188 216.8125 -188 216.8125 -188 218.8125 C-187.34 218.4825 -186.68 218.1525 -186 217.8125 C-175.05463251 216.77789877 -164.0306784 216.9946151 -154 221.8125 C-153.23300781 222.17472656 -152.46601563 222.53695312 -151.67578125 222.91015625 C-144.40155231 226.87669513 -140.89018018 233.51388008 -138.5703125 241.2734375 C-135.83959352 253.43074803 -136.93805102 264.97390448 -143.5078125 275.72265625 C-149.46358095 284.06385028 -157.44163192 289.82345577 -167.44921875 292.45703125 C-179.69099589 294.16300632 -191.82656418 293.00582467 -202 285.59375 C-209.42375523 278.981968 -213.32136209 269.26337269 -214.34765625 259.5078125 C-214.63874404 248.75022044 -212.09642024 240.86863092 -206.20703125 231.94140625 C-204.75339304 229.78542553 -204.75339304 229.78542553 -205 226.8125 C-205.97764566 224.76261614 -205.97764566 224.76261614 -207.34375 222.6015625 C-207.84390625 221.77430664 -208.3440625 220.94705078 -208.859375 220.09472656 C-209.96298461 218.30727313 -211.06716125 216.52016968 -212.171875 214.73339844 C-214.63289531 210.74430301 -217.06633772 206.79982747 -219.15625 202.6015625 C-220.88943651 199.27472568 -222.38534256 196.50448557 -225 193.8125 C-228.18027851 193.07237877 -230.67259308 193.23447439 -233.91015625 193.59375 C-240.88498243 194.087543 -247.11471313 190.86205242 -252.4375 186.5625 C-258.87809966 180.39905729 -260.66962179 173.76817322 -261.25 165.0625 C-261.15860537 158.26012844 -258.95211685 151.34546359 -255 145.8125 C-254.46375 144.966875 -253.9275 144.12125 -253.375 143.25 C-248.61648873 138.36626475 -243.97542118 136.77657073 -237.1875 136.56640625 C-232.45321451 136.52251691 -227.73092027 136.63924148 -223 136.8125 C-222.72921631 136.22710449 -222.45843262 135.64170898 -222.17944336 135.03857422 C-221.00828238 132.82813212 -219.73529141 131.10681109 -218.12890625 129.1953125 C-217.55986572 128.51275391 -216.9908252 127.83019531 -216.40454102 127.12695312 C-215.79666748 126.40443359 -215.18879395 125.68191406 -214.5625 124.9375 C-209.52325165 118.88598671 -204.51076119 112.82195853 -199.7265625 106.56542969 C-197.79116644 104.03915134 -195.84398499 101.65186612 -193.625 99.3671875 C-191.58332348 97.20950663 -190.11402126 95.56874226 -189 92.8125 C-189.55218702 89.7294558 -190.63512424 87.13965872 -191.84765625 84.25390625 C-194.96582776 74.94167203 -193.98904319 63.97765806 -190.13671875 55.04296875 C-185.37744805 45.70433106 -177.94489027 38.73093679 -168.2578125 34.66015625 C-158.97854593 32.24576675 -147.29504172 32.54517527 -138.47265625 36.3359375 C-132.74676524 39.75518995 -127.6998987 44.26265195 -124 49.8125 C-123.29700272 49.60174332 -122.59400543 49.39098663 -121.8697052 49.17384338 C-115.23495842 47.18520446 -108.5995603 45.19875284 -101.96342945 43.21473789 C-98.55200011 42.19473377 -95.14082545 41.17389435 -91.73022461 40.15112305 C-87.80657538 38.97453911 -83.88183587 37.80163035 -79.95703125 36.62890625 C-78.73603226 36.26221329 -77.51503326 35.89552032 -76.2570343 35.51771545 C-74.54582649 35.00729958 -74.54582649 35.00729958 -72.80004883 34.48657227 C-71.79855301 34.1867897 -70.79705719 33.88700714 -69.76521301 33.57814026 C-67.18849206 32.86469023 -64.62806376 32.29861009 -62 31.8125 C-62.0825 30.719375 -62.165 29.62625 -62.25 28.5 C-62.19934392 18.9428867 -57.59309269 10.49383676 -51 3.8125 C-36.80758663 -8.44783693 -16.19475936 -10.27332752 0 0 Z " fill="#F7F7F7" transform="translate(263,28.1875)"/>
<path d="M0 0 C6.6023096 5.37114121 11.17472314 14.03597386 12.6875 22.375 C13.8134705 34.8718825 11.76489295 45.04837053 4.44140625 55.30859375 C-1.55883461 62.37791984 -7.55316544 64.87126618 -16.3125 68.375 C-16.6425 98.735 -16.9725 129.095 -17.3125 160.375 C-14.3425 161.365 -11.3725 162.355 -8.3125 163.375 C1.9867933 168.68485788 8.1935823 176.80353764 11.7734375 187.671875 C14.29223116 197.87621853 13.32483142 207.96494062 8.6875 217.375 C8.0275 218.365 7.3675 219.355 6.6875 220.375 C7.0251729 223.54810907 8.21467039 225.32148289 10.3125 227.66015625 C10.84987793 228.26786865 11.38725586 228.87558105 11.94091797 229.50170898 C12.51729004 230.14052002 13.09366211 230.77933105 13.6875 231.4375 C14.87883184 232.78276797 16.06892978 234.12912963 17.2578125 235.4765625 C17.84336914 236.13817383 18.42892578 236.79978516 19.03222656 237.48144531 C21.27228904 240.04397106 23.42091682 242.66701489 25.5625 245.3125 C29.16663616 249.76270879 32.87781665 254.09982479 36.6875 258.375 C37.83412109 257.941875 37.83412109 257.941875 39.00390625 257.5 C51.96936796 253.00655479 64.57036713 252.58007221 77.0859375 258.51171875 C89.19336171 264.88722286 96.52934286 274.32935314 100.6875 287.375 C103.59909677 298.778754 101.76077458 311.33726283 96.0625 321.5625 C89.02100384 332.3145885 79.71391571 339.4595466 67.1875 342.75 C54.65337495 344.91416548 42.04688233 343.07369863 31.453125 335.70703125 C30.87046875 335.26746094 30.2878125 334.82789063 29.6875 334.375 C29.08421875 333.94574219 28.4809375 333.51648438 27.859375 333.07421875 C19.81683161 326.86747331 14.28903249 316.34945672 12.6875 306.375 C11.85663491 293.93926508 12.76340958 282.56311626 20.6875 272.375 C19.16010916 268.94826304 17.14418829 266.31658718 14.75 263.4375 C13.94949219 262.47199219 13.14898437 261.50648438 12.32421875 260.51171875 C9.12209888 256.69162475 5.88977785 252.89708327 2.65917969 249.10107422 C-1.13306283 244.62827645 -4.77256935 240.05060806 -8.3125 235.375 C-9.59125 235.684375 -10.87 235.99375 -12.1875 236.3125 C-26.58123545 239.43376245 -38.92271461 237.83514891 -52.3125 231.375 C-55.3125 229.0625 -55.3125 229.0625 -57.3125 226.375 C-57.73789062 225.83488281 -58.16328125 225.29476562 -58.6015625 224.73828125 C-64.75089053 216.16158689 -66.05415823 205.72176833 -64.87890625 195.44140625 C-62.63190562 183.27660973 -55.9968835 174.81989853 -46.03515625 167.78515625 C-43.3125 166.375 -43.3125 166.375 -35.3125 164.375 C-35.3125 133.685 -35.3125 102.995 -35.3125 71.375 C-37.2925 71.045 -39.2725 70.715 -41.3125 70.375 C-51.08289153 66.46348586 -58.04692718 59.31175344 -62.34765625 49.8125 C-66.9048031 38.29970797 -66.10232653 27.80335804 -61.3125 16.375 C-55.67350377 6.54016297 -47.40054969 -2.78107522 -36.22265625 -6.1171875 C-23.38780039 -8.35682678 -11.02970971 -7.28416101 0 0 Z " fill="#F8F8F8" transform="translate(372.3125,46.625)"/>
<path d="M0 0 C6.82113739 5.55208857 11.80831219 12.50061328 13.6875 21.1875 C13.78266919 24.03137945 13.82697982 26.84462841 13.8125 29.6875 C13.81636719 30.44675781 13.82023437 31.20601562 13.82421875 31.98828125 C13.81796768 35.55764456 13.65090936 38.75481602 12.6875 42.1875 C14.19763672 43.24324219 14.19763672 43.24324219 15.73828125 44.3203125 C17.15893687 45.31759053 18.57950231 46.31499703 20 47.3125 C20.75385986 47.83932373 21.50771973 48.36614746 22.28442383 48.90893555 C26.53860247 51.89999805 30.7212759 54.95593086 34.8359375 58.13671875 C36.09796997 59.10230713 36.09796997 59.10230713 37.38549805 60.08740234 C39.02309182 61.34550861 40.64999088 62.61768095 42.26489258 63.90478516 C46.58380449 67.359982 46.58380449 67.359982 51.87109375 68.08984375 C53.26521484 67.64318359 53.26521484 67.64318359 54.6875 67.1875 C63.88172456 66.55003376 71.03884943 67.13439797 78.4375 72.875 C84.09109292 78.12845278 86.26094832 84.12297827 86.71484375 91.74609375 C86.62817808 99.48409958 83.58096806 105.26628685 78.6875 111.1875 C72.99815453 115.90844624 67.02530763 117.54544184 59.6875 117.1875 C59.52531982 118.23828735 59.52531982 118.23828735 59.35986328 119.31030273 C58.60045291 122.55999454 57.38726752 125.2210296 55.9296875 128.22265625 C55.11564453 129.93098633 55.11564453 129.93098633 54.28515625 131.67382812 C53.13371776 134.06417265 51.97743807 136.45219101 50.81640625 138.83789062 C50.00623047 140.54428711 50.00623047 140.54428711 49.1796875 142.28515625 C48.67808105 143.32164307 48.17647461 144.35812988 47.65966797 145.42602539 C46.63192191 148.34537137 46.48356976 149.39333758 47.6875 152.1875 C48.326875 153.095 48.96625 154.0025 49.625 154.9375 C53.73109998 161.40771814 54.57249847 168.66501297 53.6875 176.1875 C52.18176718 182.40446903 50.49315667 188.70222044 45.6875 193.1875 C45.0275 193.1875 44.3675 193.1875 43.6875 193.1875 C43.6875 193.8475 43.6875 194.5075 43.6875 195.1875 C36.83284149 200.63607471 29.24652921 202.8241842 20.51953125 202.53125 C11.82198675 201.47554805 4.33986787 197.95496085 -1.3125 191.1875 C-6.05597371 183.61686864 -8.27867851 176.11774992 -7.3125 167.1875 C-5.12019015 157.90319986 -0.7288058 151.61239021 6.75 145.8125 C13.66379262 141.98784876 13.66379262 141.98784876 17.92211914 142.40795898 C20.98280224 142.59326381 22.85101559 142.40370732 25.6875 141.1875 C28.66987695 137.27164246 30.57852853 133.09188568 32.47827148 128.56933594 C33.37403175 126.43980186 34.32399953 124.34199809 35.28710938 122.2421875 C35.8861377 120.8973095 36.48195368 119.55099511 37.07421875 118.203125 C37.3542424 117.5758551 37.63426605 116.94858521 37.92277527 116.30230713 C39.49355361 112.52228798 40.00018394 110.09380358 38.6875 106.1875 C38.1925 105.176875 37.6975 104.16625 37.1875 103.125 C35.98741774 100.63911531 35.6717976 99.35237522 35.9375 96.5625 C36.25405632 92.84296321 36.07711502 90.69048787 34.6875 87.1875 C29.99765617 82.22849747 23.99919812 78.6496829 18.31494141 74.9453125 C15.75508757 73.23271748 13.30342156 71.43068782 10.85546875 69.5625 C10.10007812 68.99402344 9.3446875 68.42554688 8.56640625 67.83984375 C7.13450362 66.76017385 5.71086823 65.66942728 4.296875 64.56640625 C2.45529576 63.22077707 0.78642281 62.07961518 -1.3125 61.1875 C-4.44241531 61.54459017 -4.44241531 61.54459017 -7.3125 63.1875 C-12.89118217 65.87523172 -17.04882331 66.67452106 -23.125 66.5625 C-24.31585205 66.54727295 -24.31585205 66.54727295 -25.53076172 66.53173828 C-35.37914095 66.27188127 -43.05729355 64.11505196 -50.3125 57.1875 C-57.77310182 48.86410749 -60.67277317 40.2153513 -60.5234375 29.08984375 C-59.83310308 19.59135353 -55.87520881 11.55621609 -49.015625 4.98828125 C-34.16160871 -7.49001504 -17.19002332 -9.40586182 0 0 Z " fill="#516FF9" transform="translate(190.3125,157.8125)"/>
<path d="M0 0 C6.26972562 4.14038484 9.65709394 9.97128183 12 17 C12.14737692 19.2049854 12.22111482 21.41528368 12.25 23.625 C12.27578125 24.79289062 12.3015625 25.96078125 12.328125 27.1640625 C12.03161747 30.63037675 11.46601959 32.38696516 10.1328125 35.48046875 C8.96410049 38.73954105 8.96410049 38.73954105 9.79492188 41.98828125 C11.27842887 44.04529808 12.87696042 45.85006938 14.625 47.6875 C15.84513917 49.07039015 17.06386301 50.45453019 18.28125 51.83984375 C18.90386719 52.52933105 19.52648437 53.21881836 20.16796875 53.92919922 C22.96534539 57.09115933 25.54423018 60.41083437 28.125 63.75 C29.00244438 64.86991688 29.8800381 65.98971677 30.7578125 67.109375 C33 70 33 70 34.3671875 72.390625 C35.9985825 74.34419315 35.9985825 74.34419315 39.1875 74.25 C40.445625 74.1675 41.70375 74.085 43 74 C52.27193506 73.68709873 59.49084211 75.28993456 66.4375 81.6875 C73.23017579 89.30310776 74.75748294 96.15401754 74.44140625 106.33984375 C73.45784979 114.4955287 69.68369739 120.42967108 63.30859375 125.52734375 C56.28316789 130.00887598 48.87244014 132.17254993 40.6328125 130.52734375 C32.1098667 128.36422529 26.04331061 124.08975779 21.0078125 116.90625 C18.54372436 112.24549415 17.70669023 107.92643299 17.6875 102.6875 C17.67074219 101.63949219 17.65398437 100.59148437 17.63671875 99.51171875 C17.97043284 96.28581591 18.60855698 94.49197025 19.859375 91.58203125 C20.79592224 88.91992588 21.23403 87.63813149 20.25317383 84.96362305 C18.82308353 82.82287927 17.26612841 80.93022052 15.5625 79 C14.9744458 78.28448975 14.3863916 77.56897949 13.78051758 76.83178711 C11.8806548 74.53044957 9.94145318 72.26630076 8 70 C6.01579518 67.62059886 4.0420405 65.23295124 2.07202148 62.84179688 C0.83018163 61.33981257 -0.42014564 59.84479954 -1.67944336 58.35742188 C-2.24542236 57.68388672 -2.81140137 57.01035156 -3.39453125 56.31640625 C-4.15020386 55.42610718 -4.15020386 55.42610718 -4.92114258 54.51782227 C-6 53 -6 53 -6 51 C-7.2375 51.37125 -8.475 51.7425 -9.75 52.125 C-17.51925642 53.81078205 -25.09813323 52.55064518 -31.875 48.375 C-38.03864019 43.78862526 -41.96373476 38.41716526 -44 31 C-45.13028811 20.52512062 -43.35057511 13.02841667 -36.9375 4.75 C-26.89180406 -5.93691057 -12.48837851 -6.79153322 0 0 Z " fill="#F6F6F6" transform="translate(327,338)"/>
<path d="M0 0 C5.1178575 4.2847179 9.79468325 10.28998922 11 17 C11.68950838 24.8106605 11.20323624 31.25232978 7 38 C6.195625 38.804375 5.39125 39.60875 4.5625 40.4375 C2.77373151 42.76177506 2.77373151 42.76177506 3.25097656 44.78955078 C6.38534852 54.69181211 10.34796648 64.29585392 14.18334961 73.94213867 C15.14077933 76.35431189 16.09211891 78.76882088 17.04296875 81.18359375 C17.3397905 81.9241954 17.63661224 82.66479706 17.94242859 83.42784119 C19.12347115 86.43162001 20 88.74165414 20 92 C20.90878906 92.00386719 20.90878906 92.00386719 21.8359375 92.0078125 C29.9553916 92.38255654 36.20393356 95.05491442 41.890625 100.96484375 C47.92434376 108.59486189 49.07961211 116.44093442 48 126 C45.88587097 132.8142909 41.85231081 138.86056065 36 143 C28.76772827 146.64316229 22.09854136 148.41345701 14.23828125 146.234375 C9.22572129 144.54790623 4.7487924 142.87806111 1 139 C1 138.34 1 137.68 1 137 C0.34 137 -0.32 137 -1 137 C-6.07701263 128.48372074 -7.55459571 120.577124 -5.50390625 110.58203125 C-4.29427359 107.04881043 -2.7553468 104.67072438 -0.125 102.125 C2.24040473 99.37067413 2.24040473 99.37067413 1.80395508 97.15551758 C-1.43248021 87.29954877 -5.3519631 77.69409429 -9.18334961 68.05786133 C-10.14077933 65.64568811 -11.09211891 63.23117912 -12.04296875 60.81640625 C-12.3397905 60.0758046 -12.63661224 59.33520294 -12.94242859 58.57215881 C-14.12347115 55.56837999 -15 53.25834586 -15 50 C-15.61746094 49.98582031 -16.23492187 49.97164062 -16.87109375 49.95703125 C-25.2882997 49.48300291 -31.62410416 46.91415703 -37.375 40.625 C-43.37594899 32.80709701 -43.99458173 25.74690098 -43 16 C-41.21102953 9.36349663 -37.59904176 3.19149572 -31.6328125 -0.44140625 C-21.16661668 -5.89190288 -10.16246451 -6.88349999 0 0 Z " fill="#516FF8" transform="translate(452,115)"/>
<path d="M0 0 C5.55817641 4.58265973 8.62227428 10.31927268 9.3515625 17.42578125 C9.71407154 26.91779414 8.61568434 33.91115974 2.1328125 41.05859375 C-5.31417717 48.0274693 -11.46765404 49.60057137 -21.55859375 49.34375 C-29.21859737 48.5786191 -34.39136522 45.39893768 -39.5625 39.796875 C-42.66966553 35.91291809 -44.44080322 31.92093166 -45 27 C-45.08765625 26.29101562 -45.1753125 25.58203125 -45.265625 24.8515625 C-45.78803371 17.32412792 -43.3589406 12.05614513 -39 6 C-28.75284346 -5.57549164 -13.57016629 -7.46578728 0 0 Z " fill="#516FF9" transform="translate(289,132)"/>
<path d="M0 0 C0.99 0.66 1.98 1.32 3 2 C1.824375 1.95875 0.64875 1.9175 -0.5625 1.875 C-5.70381936 1.8840836 -10.13588287 2.78832387 -14.5 5.625 C-17.77466111 7.42606361 -20.32374078 7.21625054 -24 7 C-17.89583303 -0.37586842 -8.97773863 -1.02412722 0 0 Z " fill="#4457BF" transform="translate(278,128)"/>
<path d="M0 0 C0.33 0 0.66 0 1 0 C1.33 2.31 1.66 4.62 2 7 C-1.83408387 9.63904474 -4.70531088 10.39868062 -9.3125 10.8125 C-14.9931026 11.5450664 -18.18304883 12.92463664 -22.31640625 16.85546875 C-24 18 -24 18 -26.21484375 17.67578125 C-27.09849609 17.34126953 -27.09849609 17.34126953 -28 17 C-18.19566044 9.08685284 -18.19566044 9.08685284 -11.546875 8.94921875 C-8.85724266 8.87450674 -6.58184602 8.77366961 -4 8 C-1.96363596 5.55324627 -0.92419406 3.02777009 0 0 Z " fill="#3B4BA4" transform="translate(220,291)"/>
<path d="M0 0 C0.9178125 0.07863281 1.835625 0.15726562 2.78125 0.23828125 C5.58613358 0.70173184 7.90839881 1.53724223 10.5 2.6875 C9.51 4.1725 9.51 4.1725 8.5 5.6875 C7.51 5.3575 6.52 5.0275 5.5 4.6875 C5.5 4.0275 5.5 3.3675 5.5 2.6875 C2.72829605 2.80136459 -0.04178046 2.92810778 -2.8125 3.0625 C-3.59818359 3.0934375 -4.38386719 3.124375 -5.19335938 3.15625 C-6.3293457 3.21425781 -6.3293457 3.21425781 -7.48828125 3.2734375 C-8.18477783 3.3048584 -8.88127441 3.3362793 -9.59887695 3.36865234 C-11.82532739 3.60868253 -11.82532739 3.60868253 -14.5 5.6875 C-16.6875 5.3125 -16.6875 5.3125 -18.5 4.6875 C-17.27493102 4.03392722 -16.04470484 3.39001767 -14.8125 2.75 C-14.12800781 2.39035156 -13.44351562 2.03070313 -12.73828125 1.66015625 C-8.41499491 -0.21854933 -4.65751387 -0.43827729 0 0 Z " fill="#4558B8" transform="translate(438.5,110.3125)"/>
<path d="M0 0 C0.33 0 0.66 0 1 0 C1 2.97 1 5.94 1 9 C0.01 9.33 -0.98 9.66 -2 10 C-1.37946904 19.54833135 -1.37946904 19.54833135 0 29 C0.66 29.33 1.32 29.66 2 30 C1.34 30.66 0.68 31.32 0 32 C-4.20453324 22.67690455 -5.57987805 14.76635245 -2 4.9375 C-1.34754771 3.28598015 -0.68579758 1.63795405 0 0 Z " fill="#4050AC" transform="translate(187,314)"/>
<path d="M0 0 C3.10343537 2.2570439 3.85305607 5.03361347 4.65234375 8.6875 C5.67295822 15.47630633 5.24976786 21.5319174 3 28 C2.34 27.67 1.68 27.34 1 27 C1.00523682 26.39526855 1.01047363 25.79053711 1.01586914 25.16748047 C1.03677358 22.40333106 1.04970279 19.63919835 1.0625 16.875 C1.07087891 15.92367188 1.07925781 14.97234375 1.08789062 13.9921875 C1.10449608 9.20981513 1.00537055 4.70228431 0 0 Z " fill="#3E4DA7" transform="translate(239,313)"/>
<path d="M0 0 C2.9115281 1.37583975 5.48765528 2.95333027 8.109375 4.8203125 C8.86347656 5.35527344 9.61757812 5.89023438 10.39453125 6.44140625 C11.17183594 6.99699219 11.94914063 7.55257812 12.75 8.125 C13.54277344 8.68832031 14.33554688 9.25164062 15.15234375 9.83203125 C17.10334076 11.21888455 19.05247588 12.60827614 21 14 C19.68 14.33 18.36 14.66 17 15 C17 14.34 17 13.68 17 13 C15.865625 12.731875 14.73125 12.46375 13.5625 12.1875 C11.7990625 11.5996875 11.7990625 11.5996875 10 11 C9.67 10.01 9.34 9.02 9 8 C6.07085835 6.82917122 6.07085835 6.82917122 3 6 C2.34 5.67 1.68 5.34 1 5 C0.375 2.4375 0.375 2.4375 0 0 Z " fill="#4456BB" transform="translate(203,201)"/>
<path d="M0 0 C0.33 1.32 0.66 2.64 1 4 C0.01 4.33 -0.98 4.66 -2 5 C-2 6.32 -2 7.64 -2 9 C-3.4375 10.5625 -3.4375 10.5625 -5 12 C-6.37772835 16.13318505 -5.9708718 19.96123058 -5.83984375 24.28515625 C-6 27 -6 27 -8 29 C-10.02710562 21.39835394 -9.92545682 15.04803812 -6.1875 8.0625 C-4.39154825 4.98055811 -2.64234873 2.4042993 0 0 Z " fill="#3C4EA6" transform="translate(253,135)"/>
<path d="M0 0 C2.64 0.33 5.28 0.66 8 1 C8 1.66 8 2.32 8 3 C8.99 3.33 9.98 3.66 11 4 C11 4.99 11 5.98 11 7 C11.61488281 7.03738281 12.22976562 7.07476562 12.86328125 7.11328125 C13.67152344 7.17902344 14.47976562 7.24476563 15.3125 7.3125 C16.11300781 7.37050781 16.91351563 7.42851562 17.73828125 7.48828125 C20.36272334 8.08206694 21.30820672 8.95780294 23 11 C14.55690365 10.59146308 7.28706604 8.52185648 1.375 2.1875 C0.92125 1.465625 0.4675 0.74375 0 0 Z " fill="#455BC4" transform="translate(139,213)"/>
<path d="M0 0 C0.66 0.33 1.32 0.66 2 1 C1.67 1.66 1.34 2.32 1 3 C7.435 2.505 7.435 2.505 14 2 C10.44756103 5.55243897 5.99328554 5.91989633 1.125 6.3125 C-3.54266124 6.21182495 -7.6861678 4.67760141 -12 3 C-7.70272603 1.69339643 -4.39784135 2.3403238 0 3 C0 2.01 0 1.02 0 0 Z " fill="#4257BA" transform="translate(472,256)"/>
<path d="M0 0 C0.625 1.8125 0.625 1.8125 1 4 C0.01 5.485 0.01 5.485 -1 7 C-1.1959806 9.66879464 -1.2788183 12.20930685 -1.25 14.875 C-1.25773437 15.58269531 -1.26546875 16.29039062 -1.2734375 17.01953125 C-1.25815975 21.12160618 -0.82216616 24.31228278 1 28 C0.34 28.66 -0.32 29.32 -1 30 C-4.80941735 23.33351964 -4.80594432 16.53345852 -4 9 C-2.99730073 5.77052701 -1.72223781 2.9062763 0 0 Z " fill="#4557B3" transform="translate(413,122)"/>
<path d="M0 0 C4.21743956 3.88665998 5.77216555 8.36609563 6.2578125 13.98046875 C6.3510986 19.34441943 6.21544569 24.01524719 4 29 C3.67 29 3.34 29 3 29 C3.33 22.07 3.66 15.14 4 8 C3.34 8 2.68 8 2 8 C0.23537317 4.91190305 0 3.76687864 0 0 Z " fill="#4255AE" transform="translate(457,121)"/>
<path d="M0 0 C0.33 0.66 0.66 1.32 1 2 C-1.31 1.67 -3.62 1.34 -6 1 C-6 0.34 -6 -0.32 -6 -1 C-12.6 -0.67 -19.2 -0.34 -26 0 C-19.7552835 -6.2447165 -7.09847938 -3.48227291 0 0 Z " fill="#4252AD" transform="translate(265,228)"/>
<path d="M0 0 C2.31 0.66 4.62 1.32 7 2 C7 2.99 7 3.98 7 5 C8.485 5.1546875 8.485 5.1546875 10 5.3125 C14.28297163 5.90808706 17.99996371 7.38595027 22 9 C22 9.33 22 9.66 22 10 C14.68701787 9.83206095 8.908217 8.48251228 3 4 C1.24609375 1.83203125 1.24609375 1.83203125 0 0 Z " fill="#4557B4" transform="translate(415,155)"/>
<path d="M0 0 C0.66 0.33 1.32 0.66 2 1 C0.69132551 6.81633105 -2.56819796 11.11106904 -7 15 C-7.99 15 -8.98 15 -10 15 C-9.67 13.68 -9.34 12.36 -9 11 C-8.01 11 -7.02 11 -6 11 C-5.67 9.68 -5.34 8.36 -5 7 C-4.01 7.33 -3.02 7.66 -2 8 C-2 6.68 -2 5.36 -2 4 C-1.34 4 -0.68 4 0 4 C0 2.68 0 1.36 0 0 Z " fill="#4458BF" transform="translate(295,161)"/>
<path d="M0 0 C0.4125 0.474375 0.825 0.94875 1.25 1.4375 C3.182185 3.16266518 4.48192275 3.56584875 7 4 C7 4.99 7 5.98 7 7 C1.29290936 6.53411505 -2.15939723 5.06242216 -7 2 C-3.98968256 1.06576355 -3.13349732 0.95550089 0 2 C0 1.34 0 0.68 0 0 Z " fill="#475CC6" transform="translate(201,352)"/>
<path d="M0 0 C-0.16757813 0.60328125 -0.33515625 1.2065625 -0.5078125 1.828125 C-0.71148437 2.62734375 -0.91515625 3.4265625 -1.125 4.25 C-1.33382812 5.03890625 -1.54265625 5.8278125 -1.7578125 6.640625 C-2.04314411 9.4203071 -1.44977894 10.65887549 0 13 C-1.32 13.33 -2.64 13.66 -4 14 C-5.18234854 10.30516081 -5.2804701 6.85646386 -5 3 C-3.37600669 0.7116458 -2.82814211 0 0 0 Z " fill="#4658BD" transform="translate(239,300)"/>
<path d="M0 0 C0.33 0 0.66 0 1 0 C1 2.64 1 5.28 1 8 C0.34 8 -0.32 8 -1 8 C-0.85892253 9.45880109 -0.71197585 10.91703551 -0.5625 12.375 C-0.48128906 13.18710938 -0.40007812 13.99921875 -0.31640625 14.8359375 C-0.10909886 17.04272805 -0.10909886 17.04272805 1 19 C1.039992 20.99960012 1.04346799 23.00047242 1 25 C-2.55582475 21.44417525 -2.15919343 17.48240708 -2.1875 12.625 C-2.20167969 11.52414063 -2.21585937 10.42328125 -2.23046875 9.2890625 C-1.99195913 5.88524724 -1.21372666 3.17583814 0 0 Z " fill="#3F51A9" transform="translate(448,222)"/>
<path d="M0 0 C2.64 0.33 5.28 0.66 8 1 C8 1.99 8 2.98 8 4 C9.32 4 10.64 4 12 4 C12.33 5.65 12.66 7.3 13 9 C9.91220974 7.53400783 7.09532795 5.82973607 4.25 3.9375 C3.45078125 3.41027344 2.6515625 2.88304687 1.828125 2.33984375 C1.22484375 1.89769531 0.6215625 1.45554688 0 1 C0 0.67 0 0.34 0 0 Z " fill="#4458BB" transform="translate(200,226)"/>
<path d="M0 0 C1.79378179 2.69067269 2.97313958 5.08578257 4.1875 8.0625 C4.55230469 8.94035156 4.91710937 9.81820312 5.29296875 10.72265625 C6 13 6 13 5 15 C3.046875 14.4140625 3.046875 14.4140625 1 13 C0.390625 9.9609375 0.390625 9.9609375 0.25 6.375 C0.19328125 5.18648437 0.1365625 3.99796875 0.078125 2.7734375 C0.05234375 1.85820312 0.0265625 0.94296875 0 0 Z " fill="#4455BA" transform="translate(459,173)"/>
<path d="M0 0 C4.87626457 1.39321845 7.07577973 3.93858296 10 8 C10.8125 10.375 10.8125 10.375 11 12 C9 12 9 12 7.375 10.75 C6 9 6 9 6 5 C5.195625 4.731875 4.39125 4.46375 3.5625 4.1875 C2.716875 3.795625 1.87125 3.40375 1 3 C0.67 2.01 0.34 1.02 0 0 Z " fill="#4255B3" transform="translate(285,131)"/>
<path d="M0 0 C0.91145054 2.97022221 1.01801972 5.06485586 0.44140625 8.109375 C0.30283203 8.86347656 0.16425781 9.61757812 0.02148438 10.39453125 C-0.20571289 11.56048828 -0.20571289 11.56048828 -0.4375 12.75 C-0.58509766 13.54277344 -0.73269531 14.33554688 -0.88476562 15.15234375 C-1.24903966 17.10297246 -1.62352512 19.0516893 -2 21 C-2.33 21 -2.66 21 -3 21 C-3.38999191 13.40237976 -2.60758587 7.15533979 0 0 Z " fill="#3A4EAA" transform="translate(133,174)"/>
<path d="M0 0 C-0.33 1.65 -0.66 3.3 -1 5 C-1.515625 5.12375 -2.03125 5.2475 -2.5625 5.375 C-5.72702351 6.18641628 -8.86124985 7.0945913 -12 8 C-4.43243243 0 -4.43243243 0 0 0 Z " fill="#4054B5" transform="translate(153,156)"/>
<path d="M0 0 C0.99 0.495 0.99 0.495 2 1 C2 1.99 2 2.98 2 4 C2.66 4 3.32 4 4 4 C4.28875 5.11375 4.5775 6.2275 4.875 7.375 C5.69241329 11.00291092 5.69241329 11.00291092 8 13 C7.67 13.99 7.34 14.98 7 16 C0.29612756 5.62642369 0.29612756 5.62642369 0 0 Z " fill="#3D4FA7" transform="translate(131,197)"/>
<path d="M0 0 C0.33 0.99 0.66 1.98 1 3 C1.66 3.33 2.32 3.66 3 4 C1.86280581 7.41158256 0.95657056 8.11854601 -2 10 C-2.66 10 -3.32 10 -4 10 C-2.8905928 6.51329166 -1.73662334 3.22515763 0 0 Z " fill="#4459BF" transform="translate(226,278)"/>
<path d="M0 0 C1.21236328 0.01353516 1.21236328 0.01353516 2.44921875 0.02734375 C3.37154297 0.04474609 3.37154297 0.04474609 4.3125 0.0625 C1.88668129 2.48831871 0.23816131 3.02605664 -3.16796875 3.16015625 C-4.06128906 3.14855469 -4.95460937 3.13695312 -5.875 3.125 C-7.22658203 3.11146484 -7.22658203 3.11146484 -8.60546875 3.09765625 C-9.29253906 3.08605469 -9.97960937 3.07445312 -10.6875 3.0625 C-6.91890928 0.55010618 -4.42510751 -0.06413199 0 0 Z " fill="#455BBD" transform="translate(176.6875,220.9375)"/>
<path d="M0 0 C0.66 0 1.32 0 2 0 C2.05384521 2.29141286 2.09272087 4.58318188 2.125 6.875 C2.14820313 8.15117187 2.17140625 9.42734375 2.1953125 10.7421875 C2 14 2 14 0 16 C-1.30677037 11.09961113 -1.31718286 6.03761016 -1 1 C-0.67 0.67 -0.34 0.34 0 0 Z " fill="#4153AD" transform="translate(245,148)"/>
<path d="M0 0 C0.66 0.33 1.32 0.66 2 1 C-1.63 4.63 -5.26 8.26 -9 12 C-9 8.47601214 -8.44884893 7.98495633 -6.1875 5.4375 C-5.40439453 4.53837891 -5.40439453 4.53837891 -4.60546875 3.62109375 C-3 2 -3 2 0 0 Z " fill="#ACACAC" transform="translate(217,28)"/>
<path d="M0 0 C0.66 0.33 1.32 0.66 2 1 C-1.63 4.63 -5.26 8.26 -9 12 C-9 7.8407692 -6.75316432 5.85455565 -4 3 C-1.6875 1.125 -1.6875 1.125 0 0 Z " fill="#A3A3A3" transform="translate(324,216)"/>
<path d="M0 0 C1.92536938 1.60558484 2.91074167 2.47769478 3.34057617 4.99291992 C3.3170105 6.10050659 3.3170105 6.10050659 3.29296875 7.23046875 C3.28330078 8.03291016 3.27363281 8.83535156 3.26367188 9.66210938 C3.23853516 10.49548828 3.21339844 11.32886719 3.1875 12.1875 C3.16719727 13.4549707 3.16719727 13.4549707 3.14648438 14.74804688 C3.11115799 16.83230384 3.05735139 18.91623277 3 21 C2.67 21 2.34 21 2 21 C1.93941406 19.98679687 1.87882813 18.97359375 1.81640625 17.9296875 C1.73193296 16.57811486 1.64728843 15.22655291 1.5625 13.875 C1.50352539 12.87726563 1.50352539 12.87726563 1.44335938 11.859375 C1.187848 7.84981183 0.73217587 3.95005804 0 0 Z " fill="#475FCB" transform="translate(239,313)"/>
<path d="M0 0 C0.33 0 0.66 0 1 0 C1.33 2.31 1.66 4.62 2 7 C0.35 7.66 -1.3 8.32 -3 9 C-2.44271087 5.65626525 -1.64826111 2.96687001 0 0 Z " fill="#4558C0" transform="translate(220,291)"/>
<path d="M0 0 C1.77174819 0.08723378 3.54247377 0.19541655 5.3125 0.3125 C6.29863281 0.37050781 7.28476563 0.42851562 8.30078125 0.48828125 C11.24384457 1.04622813 12.18182999 1.68540132 14 4 C9.02906176 3.58846263 4.55491614 3.20399168 0 1 C0 0.67 0 0.34 0 0 Z " fill="#4055B0" transform="translate(148,220)"/>
<path d="M0 0 C1.9451 2.91765 2.45276317 4.62537285 3 8 C4.65 8 6.3 8 8 8 C8 8.33 8 8.66 8 9 C5.66705225 9.04241723 3.33297433 9.04092937 1 9 C0 8 0 8 -0.09765625 6.15234375 C-0.06510417 4.1015625 -0.03255208 2.05078125 0 0 Z " fill="#3A4CA7" transform="translate(469,199)"/>
<path d="M0 0 C0.99 0 1.98 0 3 0 C1.84414715 3.91211733 0.64465038 6.8745041 -2 10 C-2 8.02 -2 6.04 -2 4 C-1.34 4 -0.68 4 0 4 C0 2.68 0 1.36 0 0 Z " fill="#4053B1" transform="translate(241,289)"/>
<path d="M0 0 C1.74627478 2.61941217 2.38722388 4.03824877 3 7 C2.01 7.33 1.02 7.66 0 8 C0 7.01 0 6.02 0 5 C-0.99 5.33 -1.98 5.66 -3 6 C-1.125 1.125 -1.125 1.125 0 0 Z " fill="#415AC5" transform="translate(452,216)"/>
<path d="M0 0 C0.33 0 0.66 0 1 0 C1 2.97 1 5.94 1 9 C-0.32 9 -1.64 9 -3 9 C-2.01 6.03 -1.02 3.06 0 0 Z " fill="#4356B8" transform="translate(187,314)"/>
<path d="M0 0 C0.33 1.32 0.66 2.64 1 4 C0.01 4 -0.98 4 -2 4 C-2.66 5.98 -3.32 7.96 -4 10 C-4.66 10 -5.32 10 -6 10 C-4.6302836 6.00499382 -2.74277578 3.19990508 0 0 Z " fill="#3C4BA1" transform="translate(140,164)"/>
<path d="M0 0 C1.21386936 3.64160808 0.6674695 4.33165469 -0.9375 7.6875 C-1.31777344 8.49574219 -1.69804687 9.30398437 -2.08984375 10.13671875 C-2.39019531 10.75160156 -2.69054687 11.36648437 -3 12 C-3.33 12 -3.66 12 -4 12 C-4 10.02 -4 8.04 -4 6 C-3.34 5.67 -2.68 5.34 -2 5 C-1.27840576 3.35636866 -0.60648579 1.68949614 0 0 Z " fill="#4256B5" transform="translate(499,238)"/>
<path d="M0 0 C3.77545388 1.09068668 6.47043472 1.9083091 9 5 C7.68 5 6.36 5 5 5 C5 4.34 5 3.68 5 3 C3.35 3 1.7 3 0 3 C0 2.01 0 1.02 0 0 Z " fill="#4153B5" transform="translate(480,208)"/>
<path d="M0 0 C2.95183101 2.95183101 3.08663988 5.95511947 4 10 C2 8.9375 2 8.9375 0 7 C-0.25 3.3125 -0.25 3.3125 0 0 Z " fill="#4151B3" transform="translate(465,189)"/>
<path d="M0 0 C0.66 0.33 1.32 0.66 2 1 C0.8141763 4.37503669 -0.27573689 6.64722731 -3 9 C-3 7.68 -3 6.36 -3 5 C-2.34 5 -1.68 5 -1 5 C-0.67 3.35 -0.34 1.7 0 0 Z " fill="#4152B0" transform="translate(272,259)"/>
<path d="M0 0 C2.31 0.66 4.62 1.32 7 2 C6.67 3.32 6.34 4.64 6 6 C3.97945196 4.35830472 1.97956942 2.69088222 0 1 C0 0.67 0 0.34 0 0 Z " fill="#4152AB" transform="translate(415,155)"/>
<path d="M0 0 C2.4375 0.6875 2.4375 0.6875 5 2 C5.8125 4.625 5.8125 4.625 6 7 C1.125 3.375 1.125 3.375 0 0 Z " fill="#384AA5" transform="translate(188,346)"/>
<path d="" fill="#000000" transform="translate(0,0)"/>
<path d="" fill="#000000" transform="translate(0,0)"/>
<path d="" fill="#000000" transform="translate(0,0)"/>
<path d="" fill="#000000" transform="translate(0,0)"/>
<path d="" fill="#000000" transform="translate(0,0)"/>
<path d="" fill="#000000" transform="translate(0,0)"/>
<path d="" fill="#000000" transform="translate(0,0)"/>
<path d="" fill="#000000" transform="translate(0,0)"/>
<path d="" fill="#000000" transform="translate(0,0)"/>
<path d="" fill="#000000" transform="translate(0,0)"/>
<path d="" fill="#000000" transform="translate(0,0)"/>
<path d="" fill="#000000" transform="translate(0,0)"/>
<path d="" fill="#000000" transform="translate(0,0)"/>
<path d="" fill="#000000" transform="translate(0,0)"/>
<path d="" fill="#000000" transform="translate(0,0)"/>
<path d="" fill="#000000" transform="translate(0,0)"/>
<path d="" fill="#000000" transform="translate(0,0)"/>
<path d="" fill="#000000" transform="translate(0,0)"/>
<path d="" fill="#000000" transform="translate(0,0)"/>
<path d="" fill="#000000" transform="translate(0,0)"/>
<path d="" fill="#000000" transform="translate(0,0)"/>
<path d="" fill="#000000" transform="translate(0,0)"/>
<path d="" fill="#000000" transform="translate(0,0)"/>
<path d="" fill="#000000" transform="translate(0,0)"/>
<path d="" fill="#000000" transform="translate(0,0)"/>
<path d="" fill="#000000" transform="translate(0,0)"/>
<path d="" fill="#000000" transform="translate(0,0)"/>
<path d="" fill="#000000" transform="translate(0,0)"/>
<path d="" fill="#000000" transform="translate(0,0)"/>
<path d="" fill="#000000" transform="translate(0,0)"/>
<path d="" fill="#000000" transform="translate(0,0)"/>
<path d="" fill="#000000" transform="translate(0,0)"/>
<path d="" fill="#000000" transform="translate(0,0)"/>
<path d="" fill="#000000" transform="translate(0,0)"/>
<path d="" fill="#000000" transform="translate(0,0)"/>
<path d="" fill="#000000" transform="translate(0,0)"/>
<path d="" fill="#000000" transform="translate(0,0)"/>
<path d="" fill="#000000" transform="translate(0,0)"/>
<path d="" fill="#000000" transform="translate(0,0)"/>
<path d="" fill="#000000" transform="translate(0,0)"/>
<path d="" fill="#000000" transform="translate(0,0)"/>
<path d="" fill="#000000" transform="translate(0,0)"/>
<path d="" fill="#000000" transform="translate(0,0)"/>
<path d="" fill="#000000" transform="translate(0,0)"/>
<path d="" fill="#000000" transform="translate(0,0)"/>
<path d="" fill="#000000" transform="translate(0,0)"/>
<path d="" fill="#000000" transform="translate(0,0)"/>
<path d="" fill="#000000" transform="translate(0,0)"/>
<path d="" fill="#000000" transform="translate(0,0)"/>
<path d="" fill="#000000" transform="translate(0,0)"/>
<path d="" fill="#000000" transform="translate(0,0)"/>
<path d="" fill="#000000" transform="translate(0,0)"/>
<path d="" fill="#000000" transform="translate(0,0)"/>
<path d="" fill="#000000" transform="translate(0,0)"/>
<path d="" fill="#000000" transform="translate(0,0)"/>
<path d="" fill="#000000" transform="translate(0,0)"/>
<path d="" fill="#000000" transform="translate(0,0)"/>
</svg>
