<?xml version="1.0" encoding="UTF-8"?>
<svg version="1.1" xmlns="http://www.w3.org/2000/svg" width="500" height="500">
<path d="M0 0 C7.28627206 7.28627206 11.33718953 16.13493128 11.6875 26.5 C10.80331549 37.46388789 7.73666104 45.86732433 -0.3359375 53.546875 C-9.58646899 60.93467148 -19.07732959 62.26893419 -30.625 61.375 C-38.6638591 59.45244758 -45.42770746 56.10999155 -50.79296875 49.73828125 C-51.32559326 49.10833252 -51.85821777 48.47838379 -52.40698242 47.8293457 C-52.80892822 47.34941162 -53.21087402 46.86947754 -53.625 46.375 C-54.28010559 46.57544922 -54.93521118 46.77589844 -55.61016846 46.98242188 C-62.42119483 49.06527025 -69.23454952 51.14036112 -76.04931641 53.2109375 C-78.59321831 53.984985 -81.13651729 54.76101684 -83.67919922 55.5390625 C-87.33144419 56.65625332 -90.98578905 57.76631927 -94.640625 58.875 C-95.77929016 59.22498047 -96.91795532 59.57496094 -98.09112549 59.93554688 C-99.15192322 60.25587891 -100.21272095 60.57621094 -101.30566406 60.90625 C-102.70464935 61.33260742 -102.70464935 61.33260742 -104.13189697 61.76757812 C-106.625 62.375 -106.625 62.375 -110.625 62.375 C-110.57859375 62.98085937 -110.5321875 63.58671875 -110.484375 64.2109375 C-110.07306198 73.7592755 -112.63799172 80.40114845 -118.8125 87.6875 C-123.81949067 92.9423615 -129.40581708 96.96311532 -136.625 98.375 C-138.23362251 98.31008797 -139.84042796 98.18517871 -141.44140625 98.015625 C-152.410946 96.7492136 -152.410946 96.7492136 -162.1328125 100.7734375 C-164.57375839 103.44360604 -166.52456344 106.40967647 -168.41845703 109.484375 C-170.45540568 112.67622654 -172.87438715 115.55713148 -175.25 118.5 C-176.15820337 119.66253912 -177.06448205 120.82658464 -177.96875 121.9921875 C-181.21467 126.14953518 -184.57346936 130.20981368 -187.9453125 134.265625 C-189.65617 136.26457638 -189.65617 136.26457638 -190.625 138.375 C-190.29650804 140.26249134 -190.29650804 140.26249134 -189.6875 142.375 C-187.72862207 150.81843936 -187.99803982 157.20897001 -191.84765625 165.05078125 C-192.82195403 167.96388267 -192.41949728 169.42557617 -191.625 172.375 C-190.51284837 174.59920064 -190.51284837 174.59920064 -189.078125 176.73828125 C-188.5625 177.54330078 -188.046875 178.34832031 -187.515625 179.17773438 C-186.70351562 180.42006836 -186.70351562 180.42006836 -185.875 181.6875 C-184.81758339 183.32934662 -183.76029051 184.97127294 -182.703125 186.61328125 C-181.17717222 188.97448735 -179.65076611 191.33533991 -178.11914062 193.69287109 C-177.66216797 194.40652832 -177.20519531 195.12018555 -176.734375 195.85546875 C-176.32670898 196.48735107 -175.91904297 197.1192334 -175.49902344 197.77026367 C-174.625 199.375 -174.625 199.375 -174.625 201.375 C-173.57505859 201.13523438 -173.57505859 201.13523438 -172.50390625 200.890625 C-161.38295646 198.8988131 -149.43584413 200.14904166 -139.6875 206.0625 C-132.5614714 211.30715396 -129.19816527 218.8072999 -127.625 227.375 C-126.58075411 237.61370365 -128.53918519 245.54623868 -133.3125 254.5625 C-140.13865828 262.86458439 -147.88281001 268.6392193 -158.625 270.375 C-169.40972766 271.07764135 -178.64706369 269.6525414 -187.625 263.375 C-194.72558113 256.59717256 -198.62020189 246.62774182 -198.9375 236.875 C-198.84275975 228.95234661 -196.73034002 220.63794813 -191.75 214.375 C-191.04875 213.385 -190.3475 212.395 -189.625 211.375 C-190.75929885 207.28198127 -193.06425818 203.82570764 -195.28515625 200.234375 C-195.6350914 199.66672424 -195.98502655 199.09907349 -196.3455658 198.51422119 C-197.08083703 197.32312467 -197.81797483 196.13317857 -198.55688477 194.94433594 C-199.69117882 193.11908021 -200.8196852 191.29034672 -201.94726562 189.4609375 C-204.92701928 184.13455306 -204.92701928 184.13455306 -208.625 179.375 C-210.56181161 179.29392417 -212.4995934 179.23577525 -214.4375 179.1875 C-222.56914087 178.59773264 -229.66287497 176.17556265 -235.63671875 170.4453125 C-240.78819891 164.03402727 -242.09394052 157.31594306 -241.94921875 149.22265625 C-241.41529381 144.53312276 -239.70247799 140.57561483 -237.625 136.375 C-237.17125 135.42625 -236.7175 134.4775 -236.25 133.5 C-232.83083836 129.02878862 -228.416899 126.93799365 -223.015625 125.62890625 C-220.625 125.375 -220.625 125.375 -217.609375 125.71484375 C-213.98309044 126.09723632 -211.19476812 126.17344518 -207.625 125.375 C-203.70561232 122.13264555 -200.895691 118.39817044 -197.97216797 114.26123047 C-196.21130719 111.79577008 -194.33762648 109.43143702 -192.45019531 107.06225586 C-191.52670286 105.89781701 -190.61318798 104.72539356 -189.70996094 103.54516602 C-187.46640667 100.61951594 -185.17918825 97.85341102 -182.60546875 95.2109375 C-177.45319433 90.22140118 -177.45319433 90.22140118 -175.63671875 83.640625 C-176.40133113 80.90556842 -176.40133113 80.90556842 -177.52734375 78.21875 C-181.0110465 69.19335641 -180.04398749 59.25193478 -176.625 50.375 C-171.74031527 40.7827188 -164.66517752 34.99391796 -154.625 31.375 C-146.22794317 28.79260574 -136.56211604 29.80129008 -128.625 33.375 C-123.23176634 36.58819194 -119.54163571 40.54156144 -115.625 45.375 C-110.93670974 44.023558 -106.24937097 42.66885369 -101.5625 41.3125 C-100.86459351 41.11069122 -100.16668701 40.90888245 -99.44763184 40.70095825 C-89.09813537 37.70591995 -78.77518035 34.63741039 -68.49584961 31.40795898 C-67.62581299 31.13798096 -66.75577637 30.86800293 -65.859375 30.58984375 C-64.73354004 30.23587524 -64.73354004 30.23587524 -63.58496094 29.87475586 C-61.625 29.375 -61.625 29.375 -58.625 29.375 C-58.49544922 28.12396484 -58.49544922 28.12396484 -58.36328125 26.84765625 C-56.87382231 14.91831995 -52.98023772 7.07212655 -43.625 -0.625 C-30.93683462 -9.38711421 -12.75020403 -7.89298345 0 0 Z " fill="#000000" transform="translate(262.625,22.625)"/>
<path d="M0 0 C8.8042499 6.33212062 12.6384074 13.96393612 14.56640625 24.5234375 C15.79026127 33.95607621 13.3089218 44.03014766 7.94140625 51.8984375 C3.17873362 57.61849216 -3.38790792 62.14016775 -10.43359375 64.5234375 C-11.42359375 64.5234375 -12.41359375 64.5234375 -13.43359375 64.5234375 C-13.43359375 92.9034375 -13.43359375 121.2834375 -13.43359375 150.5234375 C-11.45359375 150.8534375 -9.47359375 151.1834375 -7.43359375 151.5234375 C3.83355868 156.6417476 9.56113192 164.55946052 13.81640625 175.8359375 C16.19533639 187.53234402 13.19599351 196.88965164 8.56640625 207.5234375 C9.32824219 208.40644531 10.09007812 209.28945312 10.875 210.19921875 C16.51029335 216.74455378 22.07557316 223.32955094 27.51953125 230.03515625 C30.45442809 233.60296023 33.49312294 237.07464047 36.56640625 240.5234375 C37.78263672 240.0903125 37.78263672 240.0903125 39.0234375 239.6484375 C51.43437019 235.48737974 62.23128363 235.01305615 74.234375 240.8125 C85.5859353 247.23531929 92.27863388 256.02083766 95.94140625 268.6484375 C97.96954795 281.22291606 95.77454534 292.46918639 88.51953125 303.046875 C82.22259145 311.03139466 74.30684786 315.81455729 64.56640625 318.5234375 C61.6659951 318.84827501 58.79587265 318.90458366 55.87890625 318.8984375 C55.08452148 318.89682617 54.29013672 318.89521484 53.47167969 318.89355469 C44.31838923 318.70371418 36.88929425 316.10278074 29.56640625 310.5234375 C28.74140625 309.9665625 27.91640625 309.4096875 27.06640625 308.8359375 C18.86594384 301.25050977 14.15986704 290.45190508 13.53515625 279.37890625 C13.62749485 270.94146673 15.32559336 263.99305522 19.54296875 256.6796875 C20.85226607 254.3189688 20.85226607 254.3189688 20.56640625 250.5234375 C18.82025583 248.20410065 17.07333294 246.10111968 15.12890625 243.9609375 C14.02369506 242.71055789 12.91953909 241.45924484 11.81640625 240.20703125 C11.26597656 239.58683105 10.71554687 238.96663086 10.1484375 238.32763672 C7.91076188 235.77571962 5.76854084 233.15822402 3.62890625 230.5234375 C0.63262455 226.83528711 -2.38187339 223.16581341 -5.43359375 219.5234375 C-6.00464844 219.6678125 -6.57570313 219.8121875 -7.1640625 219.9609375 C-17.45550605 222.31700725 -26.76141473 222.38890657 -36.87109375 219.3359375 C-37.86423584 219.0419104 -37.86423584 219.0419104 -38.87744141 218.74194336 C-44.82283121 216.77847348 -48.96226076 213.87078426 -52.296875 208.55078125 C-52.77511719 207.53113281 -53.25335938 206.51148438 -53.74609375 205.4609375 C-54.23722656 204.43871094 -54.72835938 203.41648438 -55.234375 202.36328125 C-58.74731765 194.04435843 -58.69514179 184.2554931 -55.87109375 175.7109375 C-51.66068288 165.75507013 -45.11327457 159.32044746 -35.43359375 154.5234375 C-33.78359375 154.1934375 -32.13359375 153.8634375 -30.43359375 153.5234375 C-30.43359375 125.1434375 -30.43359375 96.7634375 -30.43359375 67.5234375 C-32.41359375 67.1934375 -34.39359375 66.8634375 -36.43359375 66.5234375 C-45.88869312 62.43158615 -51.90005776 55.74466389 -55.87109375 46.3359375 C-58.88165212 37.01754254 -58.61778398 27.22148477 -54.8203125 18.1875 C-49.521013 8.00687392 -42.97561334 1.01130855 -32.30859375 -3.3515625 C-21.88961926 -6.41704011 -9.35047205 -5.67332012 0 0 Z " fill="#000000" transform="translate(360.43359375,37.4765625)"/>
<path d="M0 0 C7.54820968 6.28322427 10.99160846 12.78465127 12.80859375 22.390625 C13.2939739 27.85981918 12.62031037 32.97045273 11.80859375 38.390625 C12.27531494 38.72682861 12.74203613 39.06303223 13.22290039 39.40942383 C14.63176316 40.42466671 16.04025675 41.44042199 17.44848633 42.45654297 C19.07331219 43.62796333 20.6994692 44.79753936 22.3269043 45.96533203 C26.31777426 48.83607415 30.27926821 51.73019364 34.16796875 54.73828125 C34.83691162 55.24963623 35.50585449 55.76099121 36.19506836 56.2878418 C37.45541647 57.2548702 38.70672123 58.23382952 39.94750977 59.22583008 C43.29198355 61.81710707 43.29198355 61.81710707 47.37109375 62.203125 C48.17546875 61.935 48.97984375 61.666875 49.80859375 61.390625 C58.1761737 60.56215174 64.92593126 61.28058429 71.80859375 66.390625 C78.22171368 73.10415584 79.17628192 78.71935323 79.08203125 87.87109375 C78.58882857 94.21931688 76.24644527 98.2435725 71.80859375 102.703125 C68.57037967 105.30124815 66.08668294 105.693562 62.015625 106.1875 C57.9104902 107.15746991 56.24110314 107.84298686 53.59912109 111.18823242 C51.99887113 114.21241204 50.57763618 117.19453664 49.29418945 120.36010742 C48.49153875 122.33935715 47.63107517 124.28431351 46.75585938 126.23242188 C43.78295201 132.23046262 43.78295201 132.23046262 43.07348633 138.67407227 C43.77425125 140.50561319 43.77425125 140.50561319 45.24609375 142.265625 C49.98794756 148.71454619 49.47205974 156.77336352 48.80859375 164.390625 C47.17647531 171.61299341 43.69561741 176.91886562 37.80859375 181.390625 C30.26040784 186.01829786 22.79569796 187.80235696 14.05859375 185.7421875 C5.88922592 183.08714295 -0.54269683 179.00023568 -4.62890625 171.265625 C-5.91115673 168.31136508 -6.87676854 165.61566156 -7.19140625 162.390625 C-7.25457031 161.74609375 -7.31773437 161.1015625 -7.3828125 160.4375 C-7.82915858 152.20169496 -5.10600413 145.38568966 0.05859375 139.015625 C5.37234035 133.44349326 10.01989117 131.48021949 17.65234375 131.08203125 C21.62694038 130.44599887 23.28620279 130.0041524 25.9230957 126.90722656 C27.73978206 123.57185755 29.21168179 120.22951568 30.62109375 116.703125 C31.14767578 115.53072266 31.67425781 114.35832031 32.21679688 113.15039062 C34.85665254 107.00691574 36.34592644 103.08315657 34.80859375 96.390625 C34.14859375 95.400625 33.48859375 94.410625 32.80859375 93.390625 C32.8397819 91.36906597 32.90701872 89.34796144 32.99609375 87.328125 C32.71222294 82.91344442 32.34200565 80.98161152 29.34765625 77.6640625 C26.60278477 75.44144533 23.67367716 73.5095247 20.69628906 71.61425781 C18.15677445 69.96810582 15.73240479 68.18170017 13.29467773 66.38964844 C11.53391823 65.10570653 9.75233427 63.85790774 7.9609375 62.6171875 C4.80859375 60.390625 4.80859375 60.390625 2.5 58.4765625 C0.55268191 56.94848593 -0.77560949 55.94011976 -3.19140625 55.390625 C-5.85307651 56.30671357 -8.06915257 57.59144989 -10.48828125 59.02734375 C-18.0206 62.82615769 -27.35099125 61.86306615 -35.19140625 59.390625 C-44.56375558 55.65156824 -49.58572218 50.30978962 -54.19140625 41.390625 C-57.82506411 32.47164662 -57.13463898 22.71724513 -53.5078125 13.921875 C-49.07737411 5.40281246 -41.20564226 -1.24111698 -32.3046875 -4.74609375 C-20.93725053 -8.03001999 -9.65966832 -7.09408796 0 0 Z " fill="#5271FB" transform="translate(195.19140625,142.609375)"/>
<path d="M0 0 C6.72987244 4.99042235 10.65824206 10.61997706 11.94140625 18.875 C12.4819066 24.4663829 11.35892074 29.73564692 9.26171875 34.92578125 C9.14550139 39.38723647 12.10212094 41.83150824 14.94140625 45.0625 C16.14471924 46.47790122 17.34651385 47.89459454 18.546875 49.3125 C19.15708496 50.02664063 19.76729492 50.74078125 20.39599609 51.4765625 C22.11134272 53.52919376 23.75089046 55.61884448 25.3671875 57.75 C26.09953613 58.71401733 26.09953613 58.71401733 26.84667969 59.69750977 C27.76679156 60.91692936 28.68049991 62.14121414 29.58691406 63.37084961 C31.9320924 66.46045646 31.9320924 66.46045646 35.1484375 68.51953125 C37.72531338 68.65256308 40.24043088 68.52452891 42.81640625 68.375 C50.32205937 68.33843165 55.60659083 70.51365077 61.26171875 75.421875 C66.68617282 81.09599014 69.1888088 87.25077031 69.62890625 95.0625 C69.33501049 102.07926135 66.7516336 108.33270605 62.00390625 113.5 C55.21637489 119.57003333 48.46487869 121.39408127 39.40625 121.06640625 C31.233925 119.94432517 25.58161736 115.89857597 20.52734375 109.52734375 C16.77241909 104.18041887 15.59919508 97.67835643 16.54296875 91.21875 C17.2237642 88.17041218 17.94784315 85.22422638 19.125 82.328125 C19.23514128 77.84472712 16.23157973 75.37075533 13.37890625 72.125 C12.17832428 70.70557901 10.97912367 69.28498857 9.78125 67.86328125 C9.17780762 67.15510254 8.57436523 66.44692383 7.95263672 65.71728516 C5.36642944 62.64495409 2.89180398 59.49357344 0.44140625 56.3125 C-0.3578125 55.28511719 -1.15703125 54.25773437 -1.98046875 53.19921875 C-3.80859375 50.625 -3.80859375 50.625 -4.80859375 47.625 C-5.36289062 47.78355469 -5.9171875 47.94210937 -6.48828125 48.10546875 C-14.72691794 49.95014666 -22.50914999 48.81034659 -29.80859375 44.625 C-36.24756336 40.08564978 -38.9772597 34.15745134 -40.80859375 26.625 C-41.91780071 19.62943336 -40.12800018 12.94148459 -36.109375 7.1953125 C-26.71787618 -4.05972538 -13.37421018 -7.75571991 0 0 Z " fill="#000000" transform="translate(320.80859375,308.375)"/>
<path d="M0 0 C5.28809645 4.11886909 8.74151215 9.39551098 10.2421875 15.8984375 C10.87106822 22.45203663 10.32410536 28.03614645 7.2421875 33.8984375 C6.31842812 34.93777853 5.38716888 35.97049645 4.44897461 36.99682617 C2.79673261 39.28782641 2.2066508 40.35737854 2.39358521 43.20352173 C3.14040661 45.93443481 4.07381339 48.50617242 5.12109375 51.13671875 C5.48178452 52.09869675 5.84247528 53.06067474 6.21409607 54.05180359 C6.98561525 56.07947531 7.77432077 58.10067947 8.57885742 60.11547852 C9.80037398 63.20004504 10.9403311 66.30685253 12.07617188 69.42382812 C12.83639929 71.39246455 13.60122492 73.35933273 14.37109375 75.32421875 C14.70702042 76.25438309 15.04294708 77.18454742 15.38905334 78.14289856 C16.46832324 80.74650141 17.4026632 82.75960722 19.2421875 84.8984375 C22.55766855 86.24741062 25.70680296 86.55724182 29.2421875 86.8984375 C35.81969466 89.81146606 40.27982035 94.36535994 43.2421875 100.8984375 C45.46606931 107.88778033 45.25124574 115.62678688 42.1796875 122.2734375 C38.27562985 129.12478375 32.85410474 133.65229799 25.2421875 135.8984375 C16.8495224 136.96832399 10.17450946 135.86720021 3.2421875 130.8984375 C-2.25393693 125.93255142 -5.29328877 121.25199711 -6.09375 113.75 C-6.18946036 105.84432456 -5.46231922 100.08616484 -0.12573242 94.0534668 C1.45224598 92.04481469 1.45224598 92.04481469 1.08544922 89.93115234 C0.82521973 89.20621582 0.56499023 88.4812793 0.296875 87.734375 C-0.15800293 86.41711426 -0.15800293 86.41711426 -0.62207031 85.07324219 C-0.99686523 84.02555664 -1.37166016 82.97787109 -1.7578125 81.8984375 C-2.1846063 80.58884331 -2.60718639 79.27787113 -3.02636719 77.96582031 C-4.22718818 74.23207924 -5.50796081 70.53189907 -6.82421875 66.83740234 C-7.36472031 65.29064093 -7.88585395 63.73697942 -8.38769531 62.17724609 C-11.17318465 52.68385999 -11.17318465 52.68385999 -17.94213867 46.0859375 C-21.35767237 45.00524118 -21.35767237 45.00524118 -24.71899414 44.50634766 C-30.36137464 43.37759957 -33.85244168 39.57821341 -37.09375 35.01953125 C-40.88442312 28.36569013 -41.58161075 21.15925402 -39.7578125 13.7734375 C-37.4475203 7.09459279 -33.1133445 2.0867567 -27.0703125 -1.5390625 C-18.26040263 -5.69468036 -8.33946531 -5.22606492 0 0 Z " fill="#5371FA" transform="translate(436.7578125,102.1015625)"/>
<path d="M0 0 C4.97890643 3.73102862 7.43879039 8.63250929 8.73828125 14.578125 C9.76707329 22.32689908 8.9582637 29.00456444 4.39453125 35.48828125 C-0.44546744 41.22766667 -5.18749612 45.05868629 -12.83203125 45.96875 C-21.01890649 46.50559428 -27.6664198 44.57520412 -34.2265625 39.53125 C-39.63015277 34.27228137 -41.60769237 27.93949215 -41.96875 20.54296875 C-41.57860685 13.19713067 -36.8743915 6.68499887 -31.64453125 1.78125 C-22.4055447 -5.7563386 -10.22493774 -5.75561527 0 0 Z " fill="#5271FC" transform="translate(285.83203125,118.03125)"/>
<path d="M0 0 C2.97 0 5.94 0 9 0 C10.32 4.62 11.64 9.24 13 14 C14.65 9.38 16.3 4.76 18 0 C20.97 0 23.94 0 27 0 C27 10.56 27 21.12 27 32 C24.36 32 21.72 32 19 32 C19.01160156 31.36191406 19.02320313 30.72382813 19.03515625 30.06640625 C19.04417969 29.24011719 19.05320313 28.41382813 19.0625 27.5625 C19.07410156 26.73878906 19.08570313 25.91507812 19.09765625 25.06640625 C19.23267348 23.00836062 19.23267348 23.00836062 18 22 C17.34 23.32 16.68 24.64 16 26 C14.02 26 12.04 26 10 26 C9.34 24.02 8.68 22.04 8 20 C7.67 23.96 7.34 27.92 7 32 C4.69 32 2.38 32 0 32 C0 21.44 0 10.88 0 0 Z M19 15 C20 17 20 17 20 17 Z " fill="#262626" transform="translate(141,439)"/>
<path d="M0 0 C4.1146875 -0.0928125 4.1146875 -0.0928125 8.3125 -0.1875 C9.60281128 -0.22846802 9.60281128 -0.22846802 10.91918945 -0.27026367 C11.60198975 -0.27775635 12.28479004 -0.28524902 12.98828125 -0.29296875 C14.03302612 -0.31653442 14.03302612 -0.31653442 15.09887695 -0.34057617 C17 0 17 0 18.72802734 1.13525391 C20.56279181 3.82506791 20.37202528 5.89432507 20.36328125 9.12890625 C20.36263672 10.32837891 20.36199219 11.52785156 20.36132812 12.76367188 C20.34521484 14.01728516 20.32910156 15.27089844 20.3125 16.5625 C20.31733398 18.4487207 20.31733398 18.4487207 20.32226562 20.37304688 C20.26688058 29.73311942 20.26688058 29.73311942 18 32 C16.12060547 32.22705078 16.12060547 32.22705078 13.8671875 32.1953125 C12.77833252 32.18781982 12.77833252 32.18781982 11.66748047 32.18017578 C10.74596191 32.16196777 9.82444336 32.14375977 8.875 32.125 C5.94625 32.08375 3.0175 32.0425 0 32 C0 21.44 0 10.88 0 0 Z M8 6 C8 8.31 8 10.62 8 13 C9.32 13 10.64 13 12 13 C12 10.69 12 8.38 12 6 C10.68 6 9.36 6 8 6 Z M8 19 C8 21.64 8 24.28 8 27 C9.32 26.67 10.64 26.34 12 26 C11.01 25.67 10.02 25.34 9 25 C9 24.34 9 23.68 9 23 C9.99 23 10.98 23 12 23 C12 21.68 12 20.36 12 19 C10.68 19 9.36 19 8 19 Z " fill="#5773EE" transform="translate(255,439)"/>
<path d="M0 0 C2.64 0 5.28 0 8 0 C8.33 4.95 8.66 9.9 9 15 C9.99 13.02 10.98 11.04 12 9 C14.64 9 17.28 9 20 9 C19.62259608 11.41538509 19.19985185 13.58958995 18.125 15.796875 C16.60285178 18.96801712 15.69219216 20.9330481 16.6953125 24.41015625 C17.42090194 25.97042725 18.19386968 27.50982644 19.01953125 29.01953125 C20 31 20 31 20 34 C14.62694301 34.44041451 14.62694301 34.44041451 12 34 C10 31.5 10 31.5 9 29 C8.505 31.475 8.505 31.475 8 34 C5.36 34 2.72 34 0 34 C0 22.78 0 11.56 0 0 Z " fill="#5471F7" transform="translate(341,437)"/>
<path d="M0 0 C2.64 0 5.28 0 8 0 C8.33 4.95 8.66 9.9 9 15 C9.99 13.02 10.98 11.04 12 9 C14.64 9 17.28 9 20 9 C19.79503906 9.59167969 19.59007812 10.18335938 19.37890625 10.79296875 C18.82282182 12.42397238 18.28036664 14.05967187 17.75 15.69921875 C17.2242912 17.31194002 16.65809061 18.91175837 16.0625 20.5 C15.97170838 24.13166489 17.49567412 26.79635966 19.08984375 30.01171875 C20 32 20 32 20 34 C17.36 34 14.72 34 12 34 C11.01 32.02 10.02 30.04 9 28 C8.67 29.98 8.34 31.96 8 34 C5.36 34 2.72 34 0 34 C0 22.78 0 11.56 0 0 Z " fill="#272728" transform="translate(227,437)"/>
<path d="M0 0 C3.8671875 0.0928125 3.8671875 0.0928125 7.8125 0.1875 C7.8125 8.4375 7.8125 16.6875 7.8125 25.1875 C5.04875 25.249375 2.285 25.31125 -0.5625 25.375 C-1.86646729 25.41596802 -1.86646729 25.41596802 -3.19677734 25.45776367 C-5.1955965 25.47961768 -7.19413756 25.33670378 -9.1875 25.1875 C-11.96845904 21.01606144 -11.51820347 17.58787332 -11.5 12.6875 C-11.51611328 11.81996094 -11.53222656 10.95242188 -11.54882812 10.05859375 C-11.54947266 9.22457031 -11.55011719 8.39054687 -11.55078125 7.53125 C-11.55376221 6.77005859 -11.55674316 6.00886719 -11.55981445 5.22460938 C-10.43110398 -0.9511022 -5.10857828 -0.17268003 0 0 Z M-3.1875 6.1875 C-3.1875 10.4775 -3.1875 14.7675 -3.1875 19.1875 C-2.1975 19.1875 -1.2075 19.1875 -0.1875 19.1875 C-0.1875 14.8975 -0.1875 10.6075 -0.1875 6.1875 C-1.1775 6.1875 -2.1675 6.1875 -3.1875 6.1875 Z " fill="#282828" transform="translate(188.1875,445.8125)"/>
<path d="M0 0 C1.87365234 0.01933594 1.87365234 0.01933594 3.78515625 0.0390625 C6.9375 0.375 6.9375 0.375 8.9375 2.375 C10.21984177 5.93432042 10.1394699 9.56214995 10.1875 13.3125 C10.21328125 14.51777344 10.2390625 15.72304688 10.265625 16.96484375 C9.90306012 20.7329287 9.51501579 22.58835514 6.9375 25.375 C3.65234375 25.8984375 3.65234375 25.8984375 -0.125 25.75 C-1.37410156 25.71648437 -2.62320312 25.68296875 -3.91015625 25.6484375 C-7.0625 25.375 -7.0625 25.375 -9.0625 24.375 C-10.33717654 20.55097038 -10.28573047 16.92281344 -10.3125 12.9375 C-10.333125 12.17373047 -10.35375 11.40996094 -10.375 10.62304688 C-10.3978955 7.33468098 -10.29134314 4.91007687 -8.98828125 1.86328125 C-6.05687982 -0.40216286 -3.64542498 -0.08293625 0 0 Z M-2.0625 6.375 C-2.0625 10.665 -2.0625 14.955 -2.0625 19.375 C-1.0725 19.87 -1.0725 19.87 -0.0625 20.375 C0.5975 20.045 1.2575 19.715 1.9375 19.375 C1.9375 15.085 1.9375 10.795 1.9375 6.375 C0.6175 6.375 -0.7025 6.375 -2.0625 6.375 Z " fill="#5371F7" transform="translate(294.0625,445.625)"/>
<path d="M0 0 C1.24652344 -0.02835937 2.49304688 -0.05671875 3.77734375 -0.0859375 C7.0625 0.375 7.0625 0.375 8.984375 1.83203125 C10.61677535 5.68236686 10.45713893 9.3009836 10.375 13.4375 C10.37983398 14.66049805 10.37983398 14.66049805 10.38476562 15.90820312 C10.32994065 21.97383903 10.32994065 21.97383903 8.0625 25.375 C5.46823202 25.65168225 3.14986354 25.74795242 0.5625 25.6875 C-0.12714844 25.69072266 -0.81679688 25.69394531 -1.52734375 25.69726562 C-6.67037408 25.64212592 -6.67037408 25.64212592 -8.9375 23.375 C-9.19628906 21.25195312 -9.19628906 21.25195312 -9.203125 18.65625 C-9.20570313 17.72425781 -9.20828125 16.79226563 -9.2109375 15.83203125 C-9.20320313 14.85621094 -9.19546875 13.88039063 -9.1875 12.875 C-9.19523437 11.89917969 -9.20296875 10.92335938 -9.2109375 9.91796875 C-9.20835937 8.98597656 -9.20578125 8.05398438 -9.203125 7.09375 C-9.20086914 6.23716797 -9.19861328 5.38058594 -9.19628906 4.49804688 C-8.55488708 -0.76386973 -4.30675624 0.04444537 0 0 Z M-0.9375 6.375 C-2.25012571 7.46052366 -2.25012571 7.46052366 -2.03515625 10.09765625 C-2.02355469 11.19980469 -2.01195312 12.30195313 -2 13.4375 C-1.99097656 14.54222656 -1.98195313 15.64695312 -1.97265625 16.78515625 C-1.96105469 17.63980469 -1.94945312 18.49445313 -1.9375 19.375 C-0.6175 19.375 0.7025 19.375 2.0625 19.375 C2.0625 15.085 2.0625 10.795 2.0625 6.375 C1.0725 6.375 0.0825 6.375 -0.9375 6.375 Z " fill="#5372F9" transform="translate(321.9375,445.625)"/>
<path d="M0 0 C0 7.59 0 15.18 0 23 C-7.875 25.25 -7.875 25.25 -11.9375 25.125 C-13.09572266 25.09792969 -13.09572266 25.09792969 -14.27734375 25.0703125 C-14.84582031 25.04710937 -15.41429687 25.02390625 -16 25 C-16.30372936 16.99054432 -16.50848663 10.30934715 -13 3 C-12.01 4.485 -12.01 4.485 -11 6 C-8.43717258 6.72965366 -8.43717258 6.72965366 -6 7 C-7 9 -7 9 -9 10.125 C-12.09385348 13.02548764 -11.72769493 15.84734767 -12 20 C-10.35 19.67 -8.7 19.34 -7 19 C-7.66 18.67 -8.32 18.34 -9 18 C-9 17.34 -9 16.68 -9 16 C-8.01 16 -7.02 16 -6 16 C-6.33 14.02 -6.66 12.04 -7 10 C-6.34 9.67 -5.68 9.34 -5 9 C-5.061875 7.88625 -5.12375 6.7725 -5.1875 5.625 C-5.125625 4.42875 -5.06375 3.2325 -5 2 C-2 0 -2 0 0 0 Z " fill="#5172FC" transform="translate(273,446)"/>
<path d="M0 0 C4.29 0 8.58 0 13 0 C13 2.31 13 4.62 13 7 C11.35 7 9.7 7 8 7 C8 12.94 8 18.88 8 25 C5.36 25 2.72 25 0 25 C0 16.75 0 8.5 0 0 Z " fill="#252525" transform="translate(206,446)"/>
<path d="M0 0 C2.64 0 5.28 0 8 0 C8 5.94 8 11.88 8 18 C7.34 17.01 6.68 16.02 6 15 C5.01 14.67 4.02 14.34 3 14 C2.67 20.6 2.34 27.2 2 34 C1.34 34 0.68 34 0 34 C0 22.78 0 11.56 0 0 Z " fill="#5C74E5" transform="translate(341,437)"/>
<path d="M0 0 C1.21236328 0.04060547 1.21236328 0.04060547 2.44921875 0.08203125 C3.06410156 0.11683594 3.67898438 0.15164063 4.3125 0.1875 C4.6425 0.8475 4.9725 1.5075 5.3125 2.1875 C4.6525 2.1875 3.9925 2.1875 3.3125 2.1875 C3.3125 2.8475 3.3125 3.5075 3.3125 4.1875 C1.6625 4.5175 0.0125 4.8475 -1.6875 5.1875 C-1.6875 9.4775 -1.6875 13.7675 -1.6875 18.1875 C-0.6975 18.1875 0.2925 18.1875 1.3125 18.1875 C0.9825 19.1775 0.6525 20.1675 0.3125 21.1875 C-1.0075 20.8575 -2.3275 20.5275 -3.6875 20.1875 C-3.6875 20.8475 -3.6875 21.5075 -3.6875 22.1875 C-5.0075 21.8575 -6.3275 21.5275 -7.6875 21.1875 C-7.76836376 18.24945004 -7.8279283 15.31361925 -7.875 12.375 C-7.90013672 11.54162109 -7.92527344 10.70824219 -7.95117188 9.84960938 C-7.96083984 9.04716797 -7.97050781 8.24472656 -7.98046875 7.41796875 C-7.9961792 6.67957764 -8.01188965 5.94118652 -8.02807617 5.18041992 C-7.23692348 0.55090064 -4.22431493 -0.18366587 0 0 Z " fill="#516FFA" transform="translate(322.6875,446.8125)"/>
<path d="M0 0 C1.87365234 0.01933594 1.87365234 0.01933594 3.78515625 0.0390625 C6.9375 0.375 6.9375 0.375 8.9375 2.375 C9.33797444 4.69775177 9.6772104 7.03239357 9.9375 9.375 C9.2775 9.045 8.6175 8.715 7.9375 8.375 C7.9375 6.725 7.9375 5.075 7.9375 3.375 C5.85906989 3.84859212 5.85906989 3.84859212 3.9375 5.375 C3.22961565 8.71475372 3.22961565 8.71475372 3.1875 12.5 C3.13078125 13.78132813 3.0740625 15.06265625 3.015625 16.3828125 C2.98984375 17.37023437 2.9640625 18.35765625 2.9375 19.375 C2.6075 19.375 2.2775 19.375 1.9375 19.375 C1.9375 15.085 1.9375 10.795 1.9375 6.375 C-2.55392717 5.77312631 -2.55392717 5.77312631 -7.0625 5.375 C-8.50638571 6.58928988 -8.50638571 6.58928988 -8.16015625 10.19140625 C-8.15348089 11.77346682 -8.14151875 13.35551159 -8.125 14.9375 C-8.12048828 15.74380859 -8.11597656 16.55011719 -8.11132812 17.38085938 C-8.09950518 19.37893756 -8.08156914 21.37697783 -8.0625 23.375 C-6.4125 23.705 -4.7625 24.035 -3.0625 24.375 C-6.8125 25.5 -6.8125 25.5 -9.0625 24.375 C-10.33717654 20.55097038 -10.28573047 16.92281344 -10.3125 12.9375 C-10.333125 12.17373047 -10.35375 11.40996094 -10.375 10.62304688 C-10.3978955 7.33468098 -10.29134314 4.91007687 -8.98828125 1.86328125 C-6.05687982 -0.40216286 -3.64542498 -0.08293625 0 0 Z " fill="#5A74E7" transform="translate(294.0625,445.625)"/>
<path d="M0 0 C1.24652344 -0.02835937 2.49304688 -0.05671875 3.77734375 -0.0859375 C7.0625 0.375 7.0625 0.375 8.984375 1.83203125 C10.61677535 5.68236686 10.45713893 9.3009836 10.375 13.4375 C10.37983398 14.66049805 10.37983398 14.66049805 10.38476562 15.90820312 C10.32994065 21.97383903 10.32994065 21.97383903 8.0625 25.375 C5.46823202 25.65168225 3.14986354 25.74795242 0.5625 25.6875 C-0.12714844 25.69072266 -0.81679688 25.69394531 -1.52734375 25.69726562 C-6.67037408 25.64212592 -6.67037408 25.64212592 -8.9375 23.375 C-9.19628906 21.25195312 -9.19628906 21.25195312 -9.203125 18.65625 C-9.20570313 17.72425781 -9.20828125 16.79226563 -9.2109375 15.83203125 C-9.20320313 14.85621094 -9.19546875 13.88039063 -9.1875 12.875 C-9.19523437 11.89917969 -9.20296875 10.92335938 -9.2109375 9.91796875 C-9.20835937 8.98597656 -9.20578125 8.05398438 -9.203125 7.09375 C-9.20086914 6.23716797 -9.19861328 5.38058594 -9.19628906 4.49804688 C-8.55488708 -0.76386973 -4.30675624 0.04444537 0 0 Z M-6.9375 4.375 C-7.36376605 6.36460915 -7.36376605 6.36460915 -7.265625 8.53515625 C-7.26046875 9.32857422 -7.2553125 10.12199219 -7.25 10.93945312 C-7.229375 11.76380859 -7.20875 12.58816406 -7.1875 13.4375 C-7.18234375 14.26572266 -7.1771875 15.09394531 -7.171875 15.94726562 C-7.23596073 20.310363 -7.23596073 20.310363 -5.9375 24.375 C-3.81311661 24.45578641 -1.6878677 24.51409141 0.4375 24.5625 C1.62085938 24.59730469 2.80421875 24.63210938 4.0234375 24.66796875 C5.02632813 24.57128906 6.02921875 24.47460938 7.0625 24.375 C9.62054005 20.53793993 9.43007251 17.32406733 9.4375 12.875 C9.46199219 12.10285156 9.48648437 11.33070313 9.51171875 10.53515625 C9.56090597 6.06954553 9.56090597 6.06954553 7.32421875 2.3671875 C4.86422377 1.28801872 3.17892307 0.97280281 0.5 1 C-0.26441406 0.99226563 -1.02882813 0.98453125 -1.81640625 0.9765625 C-4.49176134 1.47911539 -5.25148986 2.2672649 -6.9375 4.375 Z " fill="#5D73D6" transform="translate(321.9375,445.625)"/>
<path d="M0 0 C1.65 0 3.3 0 5 0 C4 3 4 3 3 4 C2.8415735 6.0708472 2.74875578 8.14678029 2.68359375 10.22265625 C2.64169922 11.48271484 2.59980469 12.74277344 2.55664062 14.04101562 C2.51682404 15.38150736 2.47711186 16.7220022 2.4375 18.0625 C2.39431958 19.40691523 2.35070544 20.7513166 2.30664062 22.09570312 C2.20014642 25.3970234 2.0981354 28.69842236 2 32 C1.34 32 0.68 32 0 32 C0 21.44 0 10.88 0 0 Z " fill="#6076E0" transform="translate(255,439)"/>
<path d="M0 0 C1.796875 1.60546875 1.796875 1.60546875 3 3 C2.30132812 2.83242187 1.60265625 2.66484375 0.8828125 2.4921875 C-0.02726562 2.28851563 -0.93734375 2.08484375 -1.875 1.875 C-2.77992188 1.66617188 -3.68484375 1.45734375 -4.6171875 1.2421875 C-5.79667969 1.12230469 -5.79667969 1.12230469 -7 1 C-7.66 1.66 -8.32 2.32 -9 3 C-9.66 2.34 -10.32 1.68 -11 1 C-11.99 1.33 -12.98 1.66 -14 2 C-14.99 2 -15.98 2 -17 2 C-17 1.01 -17 0.02 -17 -1 C-18.0725 -0.484375 -19.145 0.03125 -20.25 0.5625 C-22.71477612 1.63240282 -23.72132303 2.03572782 -26.4375 1.6875 C-26.953125 1.460625 -27.46875 1.23375 -28 1 C-18.62183298 -4.01622887 -9.82333491 -4.17319997 0 0 Z " fill="#5870E7" transform="translate(284,117)"/>
<path d="M0 0 C1.98 0 3.96 0 6 0 C6.22142255 1.95689659 6.4267568 3.91561952 6.625 5.875 C6.74101562 6.96554687 6.85703125 8.05609375 6.9765625 9.1796875 C6.98429687 10.11039062 6.99203125 11.04109375 7 12 C6.34 12.66 5.68 13.32 5 14 C3.68 14 2.36 14 1 14 C1 16.64 1 19.28 1 22 C0.01 22.33 -0.98 22.66 -2 23 C-1.93993922 21.54052295 -1.8511311 20.08220728 -1.75 18.625 C-1.68039062 17.40683594 -1.68039062 17.40683594 -1.609375 16.1640625 C-1 14 -1 14 0.984375 12.8359375 C1.64953125 12.56007813 2.3146875 12.28421875 3 12 C3.33 11.34 3.66 10.68 4 10 C4.33 9.67 4.66 9.34 5 9 C3.35 9 1.7 9 0 9 C-0.66 6.69 -1.32 4.38 -2 2 C-1.34 2 -0.68 2 0 2 C0 1.34 0 0.68 0 0 Z M1 1 C1 3.31 1 5.62 1 8 C2.32 8 3.64 8 5 8 C5 5.69 5 3.38 5 1 C3.68 1 2.36 1 1 1 Z " fill="#5C75EA" transform="translate(262,444)"/>
<path d="M0 0 C0.66 0.99 1.32 1.98 2 3 C1.125 5.6875 1.125 5.6875 0 8 C-0.99 8 -1.98 8 -3 8 C-3 13.61 -3 19.22 -3 25 C-6.25839311 20.11241034 -5.57206021 14.71387196 -5 9 C-3.89552953 5.6765934 -2.5239816 2.5239816 0 0 Z " fill="#5D72D7" transform="translate(436,197)"/>
<path d="M0 0 C0.6290625 0.19335938 1.258125 0.38671875 1.90625 0.5859375 C7.24216385 2.2092125 12.57759268 3.69460565 18 5 C17.67 4.01 17.34 3.02 17 2 C18.8253125 2.0309375 18.8253125 2.0309375 20.6875 2.0625 C23.91977322 2.06824116 26.84934741 1.78766315 30 1 C25.16112547 5.25820958 19.41473444 6.43104335 13.0546875 6.2578125 C7.83672398 5.60308704 3.55521509 3.90526703 0 0 Z " fill="#5B72DF" transform="translate(254,158)"/>
<path d="M0 0 C0.99 0.495 0.99 0.495 2 1 C2 1.66 2 2.32 2 3 C2.66 3 3.32 3 4 3 C5.11328125 4.64453125 5.11328125 4.64453125 6.3125 6.8125 C8.93190953 11.17304645 11.38377806 13.22220429 16.3125 14.6875 C17.1478125 14.8421875 17.1478125 14.8421875 18 15 C18 15.66 18 16.32 18 17 C12.04223683 16.29908669 8.32491599 13.38513944 4.25 9.125 C2.05742878 6.0797622 0.9446741 3.60693749 0 0 Z " fill="#5A6EDF" transform="translate(190,310)"/>
<path d="M0 0 C0.33 0.99 0.66 1.98 1 3 C1.66 3 2.32 3 3 3 C3.144375 4.216875 3.28875 5.43375 3.4375 6.6875 C3.82780953 9.82670377 4.32351856 12.9075134 5 16 C5.66 16 6.32 16 7 16 C7.33 17.65 7.66 19.3 8 21 C1.86294692 15.49781448 0.65434837 10.1521819 0.11328125 2.1953125 C0.07589844 1.47085938 0.03851563 0.74640625 0 0 Z " fill="#5B71DD" transform="translate(244,136)"/>
<path d="M0 0 C0.33 0 0.66 0 1 0 C0.97679687 1.0621875 0.95359375 2.124375 0.9296875 3.21875 C0.75383769 13.75490165 0.75383769 13.75490165 3 24 C-1.18172479 20.71682764 -1.10740048 16.30322332 -1.79296875 11.3203125 C-2.0598301 7.04046068 -1.41849962 4.01908227 0 0 Z " fill="#6073D8" transform="translate(398,113)"/>
<path d="M0 0 C2.05123248 2.05123248 2.64147118 3.27005063 3.625 5.9375 C3.88539063 6.62714844 4.14578125 7.31679687 4.4140625 8.02734375 C5 10 5 10 5 13 C4.34 13 3.68 13 3 13 C2.34 11.02 1.68 9.04 1 7 C-0.32 7 -1.64 7 -3 7 C-3.33 5.68 -3.66 4.36 -4 3 C-2.68 3 -1.36 3 0 3 C0 2.01 0 1.02 0 0 Z " fill="#5872E8" transform="translate(438,143)"/>
<path d="M0 0 C0.33 0.66 0.66 1.32 1 2 C-0.09346881 3.34212062 -1.2001575 4.67347975 -2.3125 6 C-3.23482422 7.11375 -3.23482422 7.11375 -4.17578125 8.25 C-6 10 -6 10 -9 10 C-8.375 7.625 -8.375 7.625 -7 5 C-5.02111039 4.27306096 -3.02045442 3.60183749 -1 3 C-0.67 2.01 -0.34 1.02 0 0 Z " fill="#5A6FE2" transform="translate(240,313)"/>
<path d="M0 0 C1 2 1 2 0.9375 4.3125 C-0.42084798 8.20643086 -2.7191576 9.55681949 -6 12 C-4.81819916 6.97734643 -3.55007718 3.9050849 0 0 Z " fill="#5B73E2" transform="translate(147,149)"/>
<path d="M0 0 C4 4.75 4 4.75 4 7 C4.66 7 5.32 7 6 7 C7.33333333 9.66666667 8.66666667 12.33333333 10 15 C6.17090709 13.52663164 4.78616322 11.56408372 2.75 8.0625 C2.22921875 7.18722656 1.7084375 6.31195313 1.171875 5.41015625 C0 3 0 3 0 0 Z " fill="#5E72D9" transform="translate(141,181)"/>
<path d="M0 0 C0.99 0.33 1.98 0.66 3 1 C2.67 3.97 2.34 6.94 2 10 C0.68 9.67 -0.64 9.34 -2 9 C-1.855625 8.443125 -1.71125 7.88625 -1.5625 7.3125 C-0.97230872 4.88615805 -0.476571 2.45093655 0 0 Z " fill="#5772E4" transform="translate(347,461)"/>
<path d="M0 0 C1.98 0.66 3.96 1.32 6 2 C5.67 3.32 5.34 4.64 5 6 C3.35 5.67 1.7 5.34 0 5 C0 3.35 0 1.7 0 0 Z " fill="#4B66FA" transform="translate(350,462)"/>
<path d="M0 0 C0.66 0 1.32 0 2 0 C2.1546875 1.175625 2.1546875 1.175625 2.3125 2.375 C2.77595022 5.33045181 2.77595022 5.33045181 6 7 C5.67 8.98 5.34 10.96 5 13 C2.94876752 10.94876752 2.35852882 9.72994937 1.375 7.0625 C0.98441406 6.02802734 0.98441406 6.02802734 0.5859375 4.97265625 C0 3 0 3 0 0 Z " fill="#5B71E5" transform="translate(424,152)"/>
<path d="M0 0 C0 0.33 0 0.66 0 1 C-0.61488281 1.13277344 -1.22976563 1.26554687 -1.86328125 1.40234375 C-3.07564453 1.66724609 -3.07564453 1.66724609 -4.3125 1.9375 C-5.11300781 2.11152344 -5.91351563 2.28554687 -6.73828125 2.46484375 C-9.145401 2.99886159 -9.145401 2.99886159 -12 4 C-12.99 3.34 -13.98 2.68 -15 2 C-9.87080814 -0.10428384 -5.4389165 -0.21755666 0 0 Z " fill="#5A70E1" transform="translate(426,98)"/>
<path d="M0 0 C0.33 0 0.66 0 1 0 C1.125 6.625 1.125 6.625 0 10 C-0.99 9.67 -1.98 9.34 -3 9 C-2.01 6.03 -1.02 3.06 0 0 Z " fill="#5C70E8" transform="translate(228,252)"/>
<path d="M0 0 C2.18975773 3.28463659 2.99806563 6.20696275 4 10 C3.01 10 2.02 10 1 10 C0.34 9.01 -0.32 8.02 -1 7 C-0.67 6.01 -0.34 5.02 0 4 C0 2.68 0 1.36 0 0 Z " fill="#5C71EB" transform="translate(443,156)"/>
<path d="M0 0 C0.93423645 3.01031744 1.04449911 3.86650268 0 7 C-1.65 7.33 -3.3 7.66 -5 8 C-3.8141763 4.62496331 -2.72426311 2.35277269 0 0 Z " fill="#5972E5" transform="translate(404,105)"/>
<path d="M0 0 C0.66 0.99 1.32 1.98 2 3 C1.125 5.6875 1.125 5.6875 0 8 C-0.99 8 -1.98 8 -3 8 C-2.25 2.25 -2.25 2.25 0 0 Z " fill="#5672E7" transform="translate(436,197)"/>
<path d="M0 0 C1.48285242 0.95262034 2.96118201 1.91228405 4.4375 2.875 C5.67306641 3.67550781 5.67306641 3.67550781 6.93359375 4.4921875 C9 6 9 6 10 8 C6.66666667 6.66666667 3.33333333 5.33333333 0 4 C0 2.68 0 1.36 0 0 Z " fill="#5C70DD" transform="translate(220,191)"/>
<path d="M0 0 C0.99 0 1.98 0 3 0 C3 0.66 3 1.32 3 2 C3.66 2 4.32 2 5 2 C5 1.34 5 0.68 5 0 C6.32 0 7.64 0 9 0 C9 0.99 9 1.98 9 3 C6.36 3 3.72 3 1 3 C0.67 2.01 0.34 1.02 0 0 Z " fill="#5771E7" transform="translate(352,468)"/>
<path d="M0 0 C2.64 0 5.28 0 8 0 C7.25 4.75 7.25 4.75 5 7 C4.9175 6.21625 4.835 5.4325 4.75 4.625 C4.27193661 1.85250896 4.27193661 1.85250896 1.9375 0.6875 C1.298125 0.460625 0.65875 0.23375 0 0 Z " fill="#6174DD" transform="translate(353,446)"/>
<path d="M0 0 C1.65 0.33 3.3 0.66 5 1 C4.67 1.99 4.34 2.98 4 4 C2.35 4 0.7 4 -1 4 C-0.67 2.68 -0.34 1.36 0 0 Z " fill="#5073FA" transform="translate(353,447)"/>
<path d="M0 0 C3.73884332 2.65654657 5.64978174 4.58110387 7 9 C6.01 8.34 5.02 7.68 4 7 C4 6.34 4 5.68 4 5 C3.01 5.33 2.02 5.66 1 6 C0.4465236 3.92446352 0 2.15634036 0 0 Z " fill="#5A71E0" transform="translate(265,208)"/>
<path d="M0 0 C0.99 0.33 1.98 0.66 3 1 C-0.625 5.875 -0.625 5.875 -4 7 C-3.67 5.68 -3.34 4.36 -3 3 C-2.01 3 -1.02 3 0 3 C0 2.01 0 1.02 0 0 Z " fill="#5770E3" transform="translate(472,228)"/>
<path d="M0 0 C2 2 2 2 2.125 5.625 C2.08375 6.73875 2.0425 7.8525 2 9 C0.4375 7.875 0.4375 7.875 -1 6 C-0.6875 2.8125 -0.6875 2.8125 0 0 Z " fill="#5471E8" transform="translate(434,219)"/>
<path d="M0 0 C0.33 0 0.66 0 1 0 C1.25 2.25 1.25 2.25 1 5 C-1 7.3125 -1 7.3125 -3 9 C-2.44271087 5.65626525 -1.64826111 2.96687001 0 0 Z " fill="#5E74D6" transform="translate(248,127)"/>
<path d="" fill="#0000FF" transform="translate(0,0)"/>
<path d="" fill="#0000FF" transform="translate(0,0)"/>
<path d="" fill="#FFFFFF" transform="translate(0,0)"/>
<path d="" fill="#FFFFFF" transform="translate(0,0)"/>
<path d="" fill="#FFFFFF" transform="translate(0,0)"/>
<path d="" fill="#FFFFFF" transform="translate(0,0)"/>
<path d="" fill="#FFFFFF" transform="translate(0,0)"/>
<path d="" fill="#FFFFFF" transform="translate(0,0)"/>
<path d="" fill="#FFFFFF" transform="translate(0,0)"/>
<path d="" fill="#FFFFFF" transform="translate(0,0)"/>
<path d="" fill="#FFFFFF" transform="translate(0,0)"/>
<path d="" fill="#FFFFFF" transform="translate(0,0)"/>
<path d="" fill="#FFFFFF" transform="translate(0,0)"/>
<path d="" fill="#FFFFFF" transform="translate(0,0)"/>
<path d="" fill="#FFFFFF" transform="translate(0,0)"/>
<path d="" fill="#FFFFFF" transform="translate(0,0)"/>
<path d="" fill="#FFFFFF" transform="translate(0,0)"/>
<path d="" fill="#FFFFFF" transform="translate(0,0)"/>
<path d="" fill="#FFFFFF" transform="translate(0,0)"/>
<path d="" fill="#FFFFFF" transform="translate(0,0)"/>
<path d="" fill="#FFFFFF" transform="translate(0,0)"/>
<path d="" fill="#FFFFFF" transform="translate(0,0)"/>
<path d="" fill="#FFFFFF" transform="translate(0,0)"/>
<path d="" fill="#FFFFFF" transform="translate(0,0)"/>
<path d="" fill="#FFFFFF" transform="translate(0,0)"/>
<path d="" fill="#FFFFFF" transform="translate(0,0)"/>
<path d="" fill="#FFFFFF" transform="translate(0,0)"/>
<path d="" fill="#FFFFFF" transform="translate(0,0)"/>
<path d="" fill="#FFFFFF" transform="translate(0,0)"/>
<path d="" fill="#FFFFFF" transform="translate(0,0)"/>
<path d="" fill="#FFFFFF" transform="translate(0,0)"/>
<path d="" fill="#FFFFFF" transform="translate(0,0)"/>
<path d="" fill="#FFFFFF" transform="translate(0,0)"/>
<path d="" fill="#FFFFFF" transform="translate(0,0)"/>
<path d="" fill="#FFFFFF" transform="translate(0,0)"/>
<path d="" fill="#FFFFFF" transform="translate(0,0)"/>
<path d="" fill="#FFFFFF" transform="translate(0,0)"/>
<path d="" fill="#FFFFFF" transform="translate(0,0)"/>
<path d="" fill="#FFFFFF" transform="translate(0,0)"/>
<path d="" fill="#FFFFFF" transform="translate(0,0)"/>
<path d="" fill="#FFFFFF" transform="translate(0,0)"/>
<path d="" fill="#FFFFFF" transform="translate(0,0)"/>
<path d="" fill="#FFFFFF" transform="translate(0,0)"/>
<path d="" fill="#FFFFFF" transform="translate(0,0)"/>
<path d="" fill="#FFFFFF" transform="translate(0,0)"/>
<path d="" fill="#FFFFFF" transform="translate(0,0)"/>
<path d="" fill="#FFFFFF" transform="translate(0,0)"/>
<path d="" fill="#FFFFFF" transform="translate(0,0)"/>
<path d="" fill="#FFFFFF" transform="translate(0,0)"/>
<path d="" fill="#FFFFFF" transform="translate(0,0)"/>
<path d="" fill="#FFFFFF" transform="translate(0,0)"/>
<path d="" fill="#FFFFFF" transform="translate(0,0)"/>
<path d="" fill="#FFFFFF" transform="translate(0,0)"/>
<path d="" fill="#FFFFFF" transform="translate(0,0)"/>
<path d="" fill="#FFFFFF" transform="translate(0,0)"/>
<path d="" fill="#FFFFFF" transform="translate(0,0)"/>
<path d="" fill="#FFFFFF" transform="translate(0,0)"/>
<path d="" fill="#FFFFFF" transform="translate(0,0)"/>
<path d="" fill="#FFFFFF" transform="translate(0,0)"/>
<path d="" fill="#FFFFFF" transform="translate(0,0)"/>
<path d="" fill="#FFFFFF" transform="translate(0,0)"/>
<path d="" fill="#FFFFFF" transform="translate(0,0)"/>
<path d="" fill="#FFFFFF" transform="translate(0,0)"/>
<path d="" fill="#FFFFFF" transform="translate(0,0)"/>
<path d="" fill="#FFFFFF" transform="translate(0,0)"/>
<path d="" fill="#FFFFFF" transform="translate(0,0)"/>
<path d="" fill="#FFFFFF" transform="translate(0,0)"/>
<path d="" fill="#FFFFFF" transform="translate(0,0)"/>
<path d="" fill="#FFFFFF" transform="translate(0,0)"/>
<path d="" fill="#FFFFFF" transform="translate(0,0)"/>
<path d="" fill="#FFFFFF" transform="translate(0,0)"/>
<path d="" fill="#FFFFFF" transform="translate(0,0)"/>
</svg>
