<?xml version="1.0" encoding="UTF-8"?>
<svg version="1.1" xmlns="http://www.w3.org/2000/svg" width="500" height="500">
<path d="M0 0 C165 0 330 0 500 0 C500 165 500 330 500 500 C335 500 170 500 0 500 C0 335 0 170 0 0 Z " fill="#FEFEFE" transform="translate(0,0)"/>
<path d="M0 0 C6.02889317 4.77613615 9.78711895 11.33186144 11.8046875 18.6796875 C13.10483471 31.10609444 11.42691406 40.03980706 3.8671875 50.3125 C-1.6158118 56.60548784 -9.68561644 61.12948207 -18.01171875 61.9609375 C-28.12970703 62.27106741 -37.17898821 60.04297818 -45.1953125 53.6796875 C-47.13617426 51.76243719 -48.6016712 49.92074558 -50.1953125 47.6796875 C-50.1953125 47.0196875 -50.1953125 46.3596875 -50.1953125 45.6796875 C-50.86072556 45.87791611 -51.52613861 46.07614471 -52.2117157 46.28038025 C-58.49329163 48.1512492 -64.77550243 50.01996897 -71.05842876 51.88629818 C-74.28824679 52.84579024 -77.51781645 53.80610144 -80.74682617 54.76831055 C-84.4621097 55.87497556 -88.17823254 56.97878084 -91.89453125 58.08203125 C-93.62759773 58.59926003 -93.62759773 58.59926003 -95.39567566 59.12693787 C-97.01679008 59.60732262 -97.01679008 59.60732262 -98.6706543 60.09741211 C-99.61885544 60.37942978 -100.56705658 60.66144745 -101.54399109 60.95201111 C-104.08161413 61.64848207 -106.609131 62.19825933 -109.1953125 62.6796875 C-109.1334375 63.6284375 -109.0715625 64.5771875 -109.0078125 65.5546875 C-109.08225671 74.80438102 -112.96908385 82.95806272 -119.1953125 89.6796875 C-126.10527012 95.10535814 -133.05648487 98.99900089 -142.0078125 98.8671875 C-143.44060547 98.85751953 -143.44060547 98.85751953 -144.90234375 98.84765625 C-148.1953125 98.6796875 -148.1953125 98.6796875 -150.34570312 98.17797852 C-152.78241297 97.66809543 -154.71652901 97.40074581 -157.1953125 97.6796875 C-160.12553261 99.71305109 -162.00381241 102.36600254 -164.0703125 105.2421875 C-164.66400635 106.015625 -165.2577002 106.7890625 -165.86938477 107.5859375 C-167.08397737 109.1717596 -168.28628088 110.76707003 -169.47607422 112.37158203 C-171.51032405 115.10259565 -173.6183448 117.76755702 -175.74169922 120.42944336 C-177.09909789 122.1372691 -178.43611794 123.85935112 -179.76953125 125.5859375 C-181.29637686 127.53321885 -182.85742287 129.45461874 -184.46484375 131.3359375 C-185.11839844 132.109375 -185.77195313 132.8828125 -186.4453125 133.6796875 C-187.00734375 134.3190625 -187.569375 134.9584375 -188.1484375 135.6171875 C-189.65424501 138.58385305 -188.88348665 140.46560142 -188.1953125 143.6796875 C-187.72426078 151.99556215 -187.61362063 159.08650074 -191.1953125 166.6796875 C-192.1588584 168.49530915 -192.1588584 168.49530915 -192.1953125 170.6796875 C-191.01528894 172.92446239 -189.82737594 174.86573437 -188.3828125 176.9296875 C-185.63144305 180.89180872 -183.09706248 184.73203284 -181.0703125 189.12109375 C-177.99470821 195.53800123 -177.99470821 195.53800123 -173.1953125 200.6796875 C-167.53179153 202.56963479 -161.46159573 201.90924615 -155.58203125 201.67626953 C-148.06691519 201.68703177 -140.0269306 204.54913129 -134.62109375 209.84765625 C-128.19878249 218.09988633 -125.01190663 228.29530102 -126.1953125 238.6796875 C-128.86071395 250.28024153 -133.64050896 258.51108804 -143.53515625 265.171875 C-149.9009508 268.78009335 -154.86091147 270.18543581 -162.0703125 270.0546875 C-162.8653418 270.04598633 -163.66037109 270.03728516 -164.47949219 270.02832031 C-172.85029869 269.81879253 -179.60737315 268.09643763 -186.1953125 262.6796875 C-188.47245144 260.16855684 -190.36642275 257.53090608 -192.1953125 254.6796875 C-192.61296875 254.05707031 -193.030625 253.43445313 -193.4609375 252.79296875 C-197.90585572 244.82654843 -197.66552244 233.48190642 -195.46484375 224.796875 C-193.89482623 221.11854824 -191.67135472 217.82057078 -189.55078125 214.4375 C-189.10758545 213.72996582 -188.66438965 213.02243164 -188.20776367 212.29345703 C-187.87365479 211.76091309 -187.5395459 211.22836914 -187.1953125 210.6796875 C-189.42367076 207.01252897 -191.65314665 203.34605112 -193.8828125 199.6796875 C-194.50865234 198.64972656 -195.13449219 197.61976563 -195.77929688 196.55859375 C-197.01137684 194.53308009 -198.24955418 192.51126133 -199.49414062 190.4934082 C-200.5531692 188.74178588 -201.5793343 186.96931623 -202.55273438 185.16870117 C-203.65875084 183.17259 -204.6875181 181.39207498 -206.1953125 179.6796875 C-209.14216494 178.69062479 -209.14216494 178.69062479 -212.3203125 178.9921875 C-220.14586819 178.83284361 -226.42901913 177.03881402 -232.36328125 171.74609375 C-238.98505988 164.52357644 -239.97882993 157.61494217 -239.70703125 148.0703125 C-239.1551242 140.94035364 -235.66555738 134.99479202 -230.53515625 130.09375 C-226.61214813 127.26436818 -223.28823267 126.60604689 -218.54296875 126.92578125 C-210.45869481 127.42912392 -210.45869481 127.42912392 -203.26074219 124.22753906 C-199.51144447 120.41694492 -196.49449464 116.07853905 -193.52783203 111.64599609 C-191.84525518 109.16313168 -189.98390771 106.86259929 -188.0703125 104.5546875 C-187.47476563 103.78769531 -186.87921875 103.02070312 -186.265625 102.23046875 C-184.60793503 100.1880696 -182.91015732 98.27460483 -181.125 96.34765625 C-178.06073256 92.93913103 -175.42637443 89.7020127 -173.1953125 85.6796875 C-173.41975357 82.46422566 -174.40367198 80.56438355 -175.90234375 77.7265625 C-179.06863549 70.26521036 -178.35547177 59.83166204 -175.7578125 52.2421875 C-171.47328482 43.40157757 -164.27332371 36.41156591 -155.1953125 32.6796875 C-147.41573163 30.03531242 -135.67184855 30.59099189 -128.15625 33.62890625 C-122.95710185 36.41490397 -118.46461312 39.7155654 -115.1953125 44.6796875 C-115.1953125 45.3396875 -115.1953125 45.9996875 -115.1953125 46.6796875 C-114.60331055 46.49905762 -114.01130859 46.31842773 -113.40136719 46.13232422 C-101.97298504 42.64655756 -90.54229383 39.16954627 -79.09301758 35.75292969 C-75.44438317 34.66245646 -71.7999935 33.56267838 -68.16796875 32.41796875 C-67.00136719 32.05058594 -65.83476562 31.68320312 -64.6328125 31.3046875 C-63.64152344 30.98757812 -62.65023437 30.67046875 -61.62890625 30.34375 C-59.1953125 29.6796875 -59.1953125 29.6796875 -56.1953125 29.6796875 C-56.2571875 28.7103125 -56.3190625 27.7409375 -56.3828125 26.7421875 C-56.33242775 18.39511425 -52.47126634 10.97526388 -47.1953125 4.6796875 C-34.19854892 -7.22752703 -15.34717287 -9.23015023 0 0 Z " fill="#010101" transform="translate(261.1953125,22.3203125)"/>
<path d="M0 0 C7.60331364 6.20393076 11.26724474 13.98048248 12.4375 23.625 C13.0978256 34.07537033 9.63436455 44.28590958 2.8046875 52.33203125 C-1.71934074 56.53553117 -8.96103424 62.1875 -15.375 62.1875 C-15.375 90.5675 -15.375 118.9475 -15.375 148.1875 C-12.405 149.1775 -9.435 150.1675 -6.375 151.1875 C1.83967717 155.63150568 7.94247901 163.29538525 11.02954102 172.02832031 C12.02706794 175.64542902 12.19726965 179.13729596 12.1875 182.875 C12.18943359 183.65085449 12.19136719 184.42670898 12.19335938 185.22607422 C11.98583256 192.86211756 9.52807781 198.61267249 5.625 205.1875 C6.17027344 205.78175781 6.71554687 206.37601563 7.27734375 206.98828125 C12.10878021 212.29873192 16.7557949 217.71375995 21.2734375 223.29296875 C23.88595295 226.5087062 26.53196929 229.69478591 29.1875 232.875 C29.62956787 233.40464355 30.07163574 233.93428711 30.52709961 234.47998047 C31.55931282 235.71617134 32.59209087 236.95189054 33.625 238.1875 C34.13804687 237.9709375 34.65109375 237.754375 35.1796875 237.53125 C46.80782394 233.30283675 60.4176305 233.45083081 71.72265625 238.51171875 C82.35399077 244.65013397 90.30658281 254.3314463 93.625 266.1875 C94.0390713 269.13955723 94.10322348 272.02205519 94.0625 275 C94.05420166 275.78753662 94.04590332 276.57507324 94.03735352 277.38647461 C93.69583069 289.23038909 89.14172375 297.58231394 80.8984375 305.9375 C71.73128101 314.30933241 60.95185409 316.90137541 48.703125 316.5625 C38.10071039 315.86953173 29.13118874 309.88225685 21.9140625 302.41796875 C14.38438758 293.34031497 11.61754937 282.57432107 12.1953125 271.0078125 C12.87719395 264.94526651 14.28146192 258.92432148 18.32421875 254.203125 C19.8225196 252.26431036 19.8225196 252.26431036 19.6875 249.8828125 C18.1202437 245.90705203 15.48523376 243.19111816 12.625 240.0625 C11.43759491 238.73024161 10.25140408 237.39690002 9.06640625 236.0625 C8.48133301 235.40765625 7.89625977 234.7528125 7.29345703 234.078125 C2.19100618 228.29624332 -2.5629294 222.21062623 -7.375 216.1875 C-8.24640625 216.41566406 -9.1178125 216.64382813 -10.015625 216.87890625 C-23.45993761 220.12358343 -34.82277007 219.48700421 -47.375 213.1875 C-53.30231473 208.47785094 -57.18804797 201.63857011 -59.125 194.375 C-59.2075 193.323125 -59.29 192.27125 -59.375 191.1875 C-59.44976562 190.40890625 -59.52453125 189.6303125 -59.6015625 188.828125 C-60.14676534 178.89969439 -57.03875115 169.91530312 -50.6875 162.25 C-46.55840535 158.01142178 -41.86097714 154.46959489 -36.375 152.1875 C-34.725 152.1875 -33.075 152.1875 -31.375 152.1875 C-31.375 123.4775 -31.375 94.7675 -31.375 65.1875 C-33.355 64.8575 -35.335 64.5275 -37.375 64.1875 C-47.68454144 59.50420221 -54.4008501 51.88593133 -58.45703125 41.38671875 C-61.02910019 32.42278488 -60.01799335 23.42918404 -56.046875 15.07421875 C-50.23833365 5.04498497 -42.79962748 -2.74848294 -31.5 -6.1875 C-20.07424142 -8.39448757 -9.59633343 -6.70305687 0 0 Z " fill="#010101" transform="translate(362.375,39.8125)"/>
<path d="M0 0 C3.87911144 2.72177534 6.25612876 5.48332243 8.75 9.5 C9.34296875 10.4384375 9.9359375 11.376875 10.546875 12.34375 C12.50995074 15.93216802 13.12599281 18.93985931 13.1328125 23.00390625 C13.13410156 23.74447266 13.13539063 24.48503906 13.13671875 25.24804688 C13.13285156 26.01181641 13.12898438 26.77558594 13.125 27.5625 C13.12886719 28.33013672 13.13273437 29.09777344 13.13671875 29.88867188 C13.130981 33.17927139 13.04747031 35.85758907 12 39 C12.46672119 39.33620361 12.93344238 39.67240723 13.41430664 40.01879883 C14.8230623 41.03396453 16.23138737 42.0497279 17.6394043 43.06591797 C19.26541421 44.23795575 20.89320753 45.40752301 22.52270508 46.57470703 C26.5010849 49.43255324 30.44078367 52.31625466 34.2890625 55.34765625 C34.94898193 55.85901123 35.60890137 56.37036621 36.28881836 56.8972168 C37.5263301 57.86039778 38.75192122 58.83915555 39.96313477 59.83520508 C43.10633302 62.25640849 44.63724167 63.01899055 48.65625 62.80859375 C49.7596875 62.54175781 50.863125 62.27492188 52 62 C58.98385486 61.27671452 64.91103043 62.39283816 71 66 C75.9035543 70.33358396 79.54510976 74.99460278 80.30078125 81.6484375 C80.33766998 90.23121593 78.42675826 96.10551852 72.59375 102.49609375 C69.79886145 105.13342731 66.89764098 106.94658084 62.97924805 107.05688477 C60.18833293 107.22618943 58.47296606 107.65490093 56 109 C53.21485596 112.77416668 51.31336725 116.80758824 49.4921875 121.1015625 C48.62569195 123.12338545 47.68983909 125.10108469 46.7421875 127.0859375 C43.55910931 133.62355655 43.55910931 133.62355655 43.72241211 140.6171875 C44.99741023 142.6479202 46.35420701 144.2661861 48 146 C51.04007015 152.36967079 51.05405258 160.07175249 49.2421875 166.82421875 C45.71353367 176.11819281 40.68993445 180.41566062 32 185 C24.29044596 187.56985135 15.52955994 186.71461711 8.21875 183.3203125 C2.38111844 179.84651062 -1.83932776 175.05796778 -4.3359375 168.71875 C-6.13247668 161.36350723 -6.50831136 152.96608735 -3.0625 146.0625 C1.12000125 139.77087419 6.82205401 134.47273283 14 132 C15.92903132 131.7240522 17.8689032 131.51550097 19.8125 131.375 C20.78832031 131.30023438 21.76414062 131.22546875 22.76953125 131.1484375 C23.50558594 131.09945312 24.24164063 131.05046875 25 131 C26.91326749 126.99121276 28.80021574 122.97136957 30.6640625 118.93945312 C31.30122388 117.5705922 31.94537017 116.20495946 32.59667969 114.84277344 C33.53370263 112.87989663 34.44468954 110.9066411 35.3515625 108.9296875 C36.18421631 107.15440674 36.18421631 107.15440674 37.03369141 105.34326172 C38.19605327 101.32168939 37.68760568 99.76534646 36 96 C34.36143568 92.28456344 33.87837601 89.68298532 33.91796875 85.62890625 C33.65944345 82.33973677 33.4441942 80.55567511 31.36962891 77.96044922 C29.10305399 76.10409061 26.78469239 74.5094238 24.3125 72.9375 C23.457771 72.35605225 22.60304199 71.77460449 21.72241211 71.17553711 C19.9881289 69.99606897 18.24535513 68.82898453 16.49414062 67.67480469 C14.19420693 66.13040912 11.97402208 64.5232702 9.765625 62.8515625 C9.13487061 62.37726807 8.50411621 61.90297363 7.85424805 61.41430664 C6.68726361 60.53386069 5.52442344 59.64788595 4.36645508 58.75561523 C1.41273549 56.54194374 1.41273549 56.54194374 -2.140625 56.1171875 C-4.07287915 57.03460229 -5.93857489 58.03128677 -7.8125 59.0625 C-16.30998054 62.90459516 -27.12514924 62.13614057 -35.79296875 59.03125 C-44.19545815 55.10513106 -49.6267365 48.77412564 -53.13671875 40.234375 C-55.24817092 32.32359491 -55.50398069 22.09375166 -52.125 14.5 C-46.93121959 5.8877144 -37.75308011 -1.4810668 -28.1484375 -4.6015625 C-18.01752328 -6.48038659 -8.93574767 -5.06048303 0 0 Z " fill="#5372FF" transform="translate(194,142)"/>
<path d="M0 0 C5.94855776 3.25046192 11.04257124 9.76052621 13.1875 16.1953125 C13.6781373 22.39432608 13.68326949 27.46916409 11 33.1328125 C10.01910122 35.56019723 10.01910122 35.56019723 10.1875 38.1953125 C12.83631211 42.4573929 16.13101629 45.88760645 19.60351562 49.48681641 C22.14977935 52.23323341 24.3805813 55.2011798 26.625 58.1953125 C28.14371872 60.19691872 29.66437395 62.197058 31.1875 64.1953125 C31.80496094 65.14277344 32.42242187 66.09023438 33.05859375 67.06640625 C35.05664665 69.50722854 35.05664665 69.50722854 38.2890625 69.54296875 C39.45179688 69.44886719 40.61453125 69.35476563 41.8125 69.2578125 C49.8445586 68.96528175 55.11510473 70.78889711 61.9375 74.8203125 C68.39303955 81.63449313 71.06174754 87.85956645 70.90209961 97.28540039 C70.40793236 105.17613545 66.99468221 110.82527967 61.3125 116.1328125 C54.29947986 120.76140579 47.60627047 122.41474443 39.1875 121.1953125 C30.30517655 118.39854593 24.91989036 112.77867697 20.25 104.9453125 C18.27643569 97.97979141 17.99062074 91.22043247 21.3125 84.6953125 C22.27062295 82.54535352 22.27062295 82.54535352 22.1875 80.1953125 C19.84712822 76.30026517 16.83393906 73.14305971 13.72070312 69.86914062 C11.07065495 66.9760307 8.70625433 63.86330105 6.3125 60.7578125 C4.60618933 58.56872739 2.89661276 56.38221237 1.1875 54.1953125 C0.54941406 53.23753906 -0.08867187 52.27976562 -0.74609375 51.29296875 C-2.67013626 48.90972246 -2.67013626 48.90972246 -5.73046875 48.8125 C-6.80941406 48.89757812 -7.88835937 48.98265625 -9 49.0703125 C-17.60089952 49.35861081 -22.94246808 48.03855843 -29.625 42.5078125 C-35.70622195 36.63922069 -37.99672747 32.14666606 -38.25 23.6328125 C-37.94779587 15.43552534 -35.41878259 10.03198109 -29.890625 4.0625 C-20.82627178 -4.08178729 -10.87634426 -4.86036634 0 0 Z " fill="#020202" transform="translate(318.8125,307.8046875)"/>
<path d="M0 0 C6.55814054 3.0299008 11.49479384 7.17257429 14.19921875 13.95703125 C16.23778525 21.37083137 16.17304341 28.76281456 12.6953125 35.6875 C11.47439575 37.80446969 10.23394444 39.87955209 8.87841797 41.9128418 C7.72885716 45.05972109 8.60804179 46.56869864 9.8515625 49.640625 C10.27904785 50.72021484 10.7065332 51.79980469 11.14697266 52.91210938 C11.85152588 54.62624023 11.85152588 54.62624023 12.5703125 56.375 C13.50560373 58.72380093 14.44050008 61.07275913 15.375 63.421875 C15.83616211 64.56591797 16.29732422 65.70996094 16.77246094 66.88867188 C18.46711164 71.11446002 20.09562109 75.36253111 21.6953125 79.625 C22.16195312 80.8521875 22.62859375 82.079375 23.109375 83.34375 C24.0703125 86.125 24.0703125 86.125 24.0703125 88.125 C24.6271875 88.15078125 25.1840625 88.1765625 25.7578125 88.203125 C33.3271204 88.7657087 39.13563284 90.71424953 44.3828125 96.375 C48.91382483 102.19000493 50.74841476 108.16897628 50.4765625 115.54296875 C49.27684353 123.16810567 45.13863608 129.00553841 39.16015625 133.71484375 C32.84547301 137.97577954 27.54771284 138.65507007 19.96875 137.7578125 C12.50423613 136.12809384 7.34342939 131.27509347 3.0703125 125.125 C-0.2919919 119.2970057 -0.9112275 113.70762146 0.0703125 107.125 C1.90984924 102.02927179 4.18082785 97.89287527 8.0703125 94.125 C6.22558073 88.30443839 4.1358038 82.60647404 1.93359375 76.9140625 C1.6478952 76.17484558 1.36219666 75.43562866 1.06784058 74.67401123 C-0.13137361 71.57574053 -1.3330621 68.47846116 -2.5402832 65.38330078 C-3.42842234 63.10357774 -4.31034229 60.82152749 -5.19140625 58.5390625 C-5.6038282 57.48907578 -5.6038282 57.48907578 -6.02458191 56.4178772 C-7.14707529 53.49982296 -7.9296875 51.28105883 -7.9296875 48.125 C-9.0846875 48.2075 -10.2396875 48.29 -11.4296875 48.375 C-17.32795641 48.33338964 -21.56730193 46.30311949 -25.8828125 42.32421875 C-32.10898879 35.58791457 -34.61254112 29.40000171 -34.3359375 20.19140625 C-33.40807255 13.18781023 -30.44554354 7.94170916 -24.8671875 3.625 C-23.58227287 2.74973142 -22.26960203 1.91349841 -20.9296875 1.125 C-20.32511719 0.75246094 -19.72054688 0.37992187 -19.09765625 -0.00390625 C-13.32085143 -2.32503684 -5.8643808 -1.75149507 0 0 Z " fill="#5372FF" transform="translate(430.9296875,99.875)"/>
<path d="M0 0 C4.49589279 3.24648714 7.84365205 7.50495808 9 13 C9.77204581 20.99686956 10.0405593 28.40736232 5 35 C0.3635831 40.54573838 -4.20360388 44.58629017 -11.65625 45.3984375 C-12.9246875 45.39070313 -14.193125 45.38296875 -15.5 45.375 C-16.7684375 45.38273437 -18.036875 45.39046875 -19.34375 45.3984375 C-25.61797542 44.71470781 -30.70773413 41.57995125 -35 37 C-40.5044752 30.09412298 -40.59675436 23.58000152 -40 15 C-39.34 15 -38.68 15 -38 15 C-37.95875 14.34 -37.9175 13.68 -37.875 13 C-36.20804234 7.2847166 -32.51046447 2.59508031 -27.375 -0.4375 C-18.75938286 -4.42621164 -8.50781932 -4.41146187 0 0 Z " fill="#5372FF" transform="translate(285,118)"/>
<path d="M0 0 C16 0 16 0 20 3 C20.390625 5.55859375 20.390625 5.55859375 20.25 8.4375 C20.21390625 9.38496094 20.1778125 10.33242188 20.140625 11.30859375 C20.07101562 12.64083984 20.07101562 12.64083984 20 14 C20 16.23096125 20.02421687 18.46348407 20.140625 20.69140625 C20.19476563 22.11259766 20.19476563 22.11259766 20.25 23.5625 C20.29640625 24.51253906 20.3428125 25.46257812 20.390625 26.44140625 C20 29 20 29 16 32 C10.72 32 5.44 32 0 32 C0 21.44 0 10.88 0 0 Z " fill="#5976FF" transform="translate(255,439)"/>
<path d="M0 0 C2.64 0 5.28 0 8 0 C9.91539047 4.96260257 11.60961435 9.86626838 13 15 C15.27376292 10.03906272 16.78623966 5.32187227 18 0 C20.64 0 23.28 0 26 0 C26 10.56 26 21.12 26 32 C24.02 32 22.04 32 20 32 C19.67 26.39 19.34 20.78 19 15 C18.690625 16.464375 18.38125 17.92875 18.0625 19.4375 C17.125 23.875 17.125 23.875 16 25 C14.00041636 25.04080783 11.99954746 25.04254356 10 25 C9.34 22.36 8.68 19.72 8 17 C7.67 21.95 7.34 26.9 7 32 C4.69 32 2.38 32 0 32 C0 21.44 0 10.88 0 0 Z " fill="#333333" transform="translate(141,439)"/>
<path d="M0 0 C0.66 0 1.32 0 2 0 C4.31 0 6.62 0 9 0 C9 8.25 9 16.5 9 25 C6 25 3 25 0 25 C-1.155 25.04125 -2.31 25.0825 -3.5 25.125 C-7 25 -7 25 -9 23 C-9.45027679 19.51946051 -9.32407972 16.00633808 -9.3125 12.5 C-9.33666992 11.03626953 -9.33666992 11.03626953 -9.36132812 9.54296875 C-9.36197266 8.61097656 -9.36261719 7.67898438 -9.36328125 6.71875 C-9.36626221 5.86216797 -9.36924316 5.00558594 -9.37231445 4.12304688 C-9.24945068 3.42244141 -9.12658691 2.72183594 -9 2 C-5.53717838 -0.30854775 -4.05093501 -0.17238021 0 0 Z " fill="#353535" transform="translate(187,446)"/>
<path d="M0 0 C1.051875 -0.00773437 2.10375 -0.01546875 3.1875 -0.0234375 C6.39992015 0.43165536 7.07140058 0.85553579 9 3.375 C9.38818359 5.51977539 9.38818359 5.51977539 9.3984375 7.97265625 C9.40423828 9.29813477 9.40423828 9.29813477 9.41015625 10.65039062 C9.39855469 11.57013672 9.38695312 12.48988281 9.375 13.4375 C9.38660156 14.36111328 9.39820313 15.28472656 9.41015625 16.23632812 C9.40628906 17.11869141 9.40242188 18.00105469 9.3984375 18.91015625 C9.39336182 20.12264038 9.39336182 20.12264038 9.38818359 21.35961914 C9.19603271 22.35723267 9.19603271 22.35723267 9 23.375 C5.55324591 25.67283606 4.06671888 25.67254883 0 25.6875 C-1.051875 25.70425781 -2.10375 25.72101563 -3.1875 25.73828125 C-6.41183566 25.32180456 -7.060185 24.88945799 -9 22.375 C-9.38818359 20.33789062 -9.38818359 20.33789062 -9.3984375 18.03125 C-9.40230469 17.19722656 -9.40617187 16.36320312 -9.41015625 15.50390625 C-9.39275391 14.20259766 -9.39275391 14.20259766 -9.375 12.875 C-9.38660156 12.00746094 -9.39820313 11.13992188 -9.41015625 10.24609375 C-9.40435547 8.99505859 -9.40435547 8.99505859 -9.3984375 7.71875 C-9.39505371 6.95755859 -9.39166992 6.19636719 -9.38818359 5.41210938 C-8.38802231 0.16346426 -4.69492147 -0.03452148 0 0 Z " fill="#5977FF" transform="translate(322,445.625)"/>
<path d="M0 0 C1.051875 -0.00773437 2.10375 -0.01546875 3.1875 -0.0234375 C6.39612835 0.43111818 7.06429949 0.86902797 9 3.375 C9.38818359 5.41210938 9.38818359 5.41210938 9.3984375 7.71875 C9.40423828 8.96978516 9.40423828 8.96978516 9.41015625 10.24609375 C9.39855469 11.11363281 9.38695312 11.98117187 9.375 12.875 C9.38660156 13.74253906 9.39820313 14.61007812 9.41015625 15.50390625 C9.40628906 16.33792969 9.40242188 17.17195313 9.3984375 18.03125 C9.39505371 18.79244141 9.39166992 19.55363281 9.38818359 20.33789062 C8.89601672 22.92068333 8.08503996 23.80976933 6 25.375 C2.93359375 25.73828125 2.93359375 25.73828125 -0.5625 25.6875 C-1.71878906 25.68363281 -2.87507813 25.67976563 -4.06640625 25.67578125 C-7 25.375 -7 25.375 -9 23.375 C-9.44869661 20.08256396 -9.32408242 16.75702257 -9.3125 13.4375 C-9.32861328 12.51775391 -9.34472656 11.59800781 -9.36132812 10.65039062 C-9.36197266 9.76673828 -9.36261719 8.88308594 -9.36328125 7.97265625 C-9.36626221 7.16320557 -9.36924316 6.35375488 -9.37231445 5.51977539 C-8.44533975 0.17979327 -4.76969119 -0.03507126 0 0 Z " fill="#5976FF" transform="translate(294,445.625)"/>
<path d="M0 0 C2.31 0 4.62 0 7 0 C7.33 5.61 7.66 11.22 8 17 C9.32 14.36 10.64 11.72 12 9 C14.31 9 16.62 9 19 9 C17.18905473 14.69154229 17.18905473 14.69154229 15.8125 16.9375 C13.62394869 22.49305332 16.90391058 28.80534361 19 34 C16.69 34 14.38 34 12 34 C10.68 31.36 9.36 28.72 8 26 C7.67 28.64 7.34 31.28 7 34 C4.69 34 2.38 34 0 34 C0 22.78 0 11.56 0 0 Z " fill="#6883FF" transform="translate(342,437)"/>
<path d="M0 0 C2.31 0 4.62 0 7 0 C7.33 6.27 7.66 12.54 8 19 C9.32 15.7 10.64 12.4 12 9 C14.64 9 17.28 9 20 9 C18 14 18 14 16.8125 16.375 C14.91545261 22.50392235 17.7139518 28.33457619 20 34 C17.36 34 14.72 34 12 34 C10.68 30.7 9.36 27.4 8 24 C7.67 27.3 7.34 30.6 7 34 C4.69 34 2.38 34 0 34 C0 22.78 0 11.56 0 0 Z " fill="#343434" transform="translate(227,437)"/>
<path d="M0 0 C4.33333333 0 8.66666667 0 13 0 C13 1.98 13 3.96 13 6 C11.35 6.33 9.7 6.66 8 7 C7.67 12.94 7.34 18.88 7 25 C4.69 25 2.38 25 0 25 C0 16.75 0 8.5 0 0 Z " fill="#303030" transform="translate(206,446)"/>
<path d="M0 0 C1.98 0 3.96 0 6 0 C6 10.89 6 21.78 6 33 C4.02 33 2.04 33 0 33 C0 22.11 0 11.22 0 0 Z " fill="#5271FF" transform="translate(342,438)"/>
<path d="M0 0 C1.32 0 2.64 0 4 0 C4 4.95 4 9.9 4 15 C2.68 15 1.36 15 0 15 C0 10.05 0 5.1 0 0 Z " fill="#F9FAFF" transform="translate(320,451)"/>
<path d="M0 0 C1.32 0 2.64 0 4 0 C4 4.95 4 9.9 4 15 C2.68 15 1.36 15 0 15 C0 10.05 0 5.1 0 0 Z " fill="#F9FAFF" transform="translate(292,451)"/>
<path d="M0 0 C1.32 0 2.64 0 4 0 C4 4.29 4 8.58 4 13 C2.68 13.33 1.36 13.66 0 14 C0 9.38 0 4.76 0 0 Z " fill="#E6E6E6" transform="translate(185,452)"/>
<path d="M0 0 C1.66611905 -0.042721 3.33382885 -0.04063832 5 0 C6 1 6 1 6.09765625 2.84765625 C6.06510417 4.8984375 6.03255208 6.94921875 6 9 C4.02 9 2.04 9 0 9 C0 6.03 0 3.06 0 0 Z " fill="#E5EAFF" transform="translate(262,457)"/>
<path d="M0 0 C1.66611905 -0.042721 3.33382885 -0.04063832 5 0 C6 1 6 1 6.125 4.5 C6 8 6 8 5 9 C3.33382885 9.04063832 1.66611905 9.042721 0 9 C0 6.03 0 3.06 0 0 Z " fill="#E5E9FF" transform="translate(262,444)"/>
</svg>
